<svg id="Layer_1" data-name="Layer 1" xmlns="http://www.w3.org/2000/svg" viewBox="0 0 419.16 352"><defs><style>.cls-1{fill:#c26b38;}.cls-1,.cls-2{stroke:#45911c;stroke-width:2px;}.cls-1,.cls-2,.cls-3,.cls-4,.cls-5,.cls-6{stroke-miterlimit:10;}.cls-2,.cls-5{fill:none;}.cls-3,.cls-6{fill:#b82525;}.cls-3,.cls-5,.cls-6{stroke:#78706d;}.cls-3{stroke-width:5px;}.cls-4{fill:#decfca;stroke:#decfca;}.cls-4,.cls-6{stroke-width:4px;}.cls-5{stroke-width:3px;}.cls-7{fill:#78706d;}</style></defs><title>listIcon2</title><rect class="cls-1" x="61.76" y="219.23" width="99.56" height="61.54" transform="translate(328.54 64.46) rotate(90)"/><line class="cls-2" x1="93.92" y1="126.22" x2="93.92" y2="225.78"/><line class="cls-2" x1="63.15" y1="126.22" x2="63.15" y2="225.78"/><line class="cls-2" x1="78.54" y1="126.22" x2="78.54" y2="225.78"/><ellipse class="cls-3" cx="27.13" cy="176" rx="24.63" ry="74.67"/><polygon class="cls-4" points="129.82 250.67 129.82 101.33 386.23 101.33 417 176 386.23 250.67 129.82 250.67"/><line class="cls-5" x1="163.15" y1="176" x2="286.23" y2="176"/><polygon class="cls-1" points="128.54 256.89 128.54 95.11 149.05 95.11 164.44 176 149.05 256.89 128.54 256.89"/><rect class="cls-6" x="-21.44" y="239.74" width="348" height="20.51" transform="translate(369.56 23.44) rotate(90)"/><polygon class="cls-7" points="286.23 174.5 327.26 176 286.23 177.5 286.23 174.5"/></svg>