<svg id="Layer_1" data-name="Layer 1" xmlns="http://www.w3.org/2000/svg" viewBox="0 0 285.97 285.97"><defs><style>.cls-1{fill:#c26b38;}.cls-1,.cls-2{stroke:#45911c;stroke-width:2px;}.cls-1,.cls-2,.cls-3,.cls-4,.cls-5,.cls-6{stroke-miterlimit:10;}.cls-2,.cls-5{fill:none;}.cls-3,.cls-6{fill:#b82525;}.cls-3,.cls-4,.cls-6{stroke:#78706d;}.cls-3{stroke-width:5px;}.cls-4{fill:#78706d;}.cls-4,.cls-6{stroke-width:4px;}.cls-5{stroke:#2b2827;stroke-width:3px;}.cls-7{fill:#2b2827;}</style></defs><title>listIcon</title><rect class="cls-1" x="146.68" y="313.3" width="20.01" height="60.03" transform="translate(181.3 -116.93) rotate(45)"/><line class="cls-2" x1="52.88" y1="218.94" x2="67.03" y2="233.09"/><line class="cls-2" x1="31.66" y1="240.16" x2="45.81" y2="254.31"/><line class="cls-2" x1="42.27" y1="229.55" x2="56.42" y2="243.7"/><circle class="cls-3" cx="17.51" cy="268.46" r="15.01"/><polygon class="cls-4" points="95.33 211.87 74.11 190.64 250.97 13.77 282.81 3.16 272.2 35 95.33 211.87"/><line class="cls-5" x1="107.71" y1="178.26" x2="192.61" y2="93.36"/><polygon class="cls-1" points="95.33 213.63 72.34 190.64 86.49 176.49 108.59 177.38 109.48 199.49 95.33 213.63"/><rect class="cls-6" x="139.97" y="305.01" width="90.05" height="20.01" transform="translate(169.58 -145.23) rotate(45)"/><polygon class="cls-7" points="191.55 92.3 220.91 65.07 193.67 94.42 191.55 92.3"/></svg>