<svg id="Layer_1" data-name="Layer 1" xmlns="http://www.w3.org/2000/svg" xmlns:xlink="http://www.w3.org/1999/xlink" viewBox="0 0 350 350"><defs><style>.cls-1{fill:none;}.cls-2{isolation:isolate;}.cls-3{fill:#3c7d18;}.cls-4{clip-path:url(#clip-path);}.cls-5{fill:#45911c;}.cls-6{fill:#fffdf2;}.cls-7{fill:#ffe467;}.cls-8{fill:#387517;}.cls-9{clip-path:url(#clip-path-2);}.cls-10{fill:#40871a;}.cls-11{clip-path:url(#clip-path-3);}</style><clipPath id="clip-path"><polygon class="cls-1" points="310.66 96.52 313.2 227.14 192.39 341.84 189.85 211.22 310.66 96.52"/></clipPath><clipPath id="clip-path-2"><polygon class="cls-1" points="189.85 211.22 192.39 341.84 39.34 253.48 36.8 122.86 189.85 211.22"/></clipPath><clipPath id="clip-path-3"><polygon class="cls-1" points="310.66 96.52 189.85 211.22 36.8 122.86 157.61 8.16 310.66 96.52"/></clipPath></defs><title>dices</title><g class="cls-2"><polygon class="cls-3" points="310.66 96.52 313.2 227.14 192.39 341.84 189.85 211.22 310.66 96.52"/><g class="cls-2"><g class="cls-4"><path class="cls-5" d="M251.25,205.45c7-6.64,12.83-5.9,13,1.67s-5.43,19.14-12.43,25.79-12.82,5.9-13-1.67,5.42-19.14,12.42-25.79M206.3,326.93l92.93-88.23c6.84-6.5,12.27-17.76,12.12-25.16l-2-100.48c-.14-7.39-5.81-8.12-12.65-1.63l-92.93,88.23c-6.84,6.5-12.27,17.77-12.12,25.16l2,100.48c.14,7.4,5.81,8.13,12.65,1.63"/><path class="cls-6" d="M251.78,232.25c6.66-6.33,12-17.34,11.82-24.54s-5.67-7.91-12.33-1.59-12,17.33-11.82,24.53,5.67,7.92,12.33,1.6"/><path class="cls-7" d="M251.27,206.12c6.66-6.32,12.19-5.61,12.33,1.59s-5.16,18.21-11.82,24.54-12.19,5.6-12.33-1.6,5.16-18.21,11.82-24.53m.52,26.79c7-6.65,12.58-18.22,12.43-25.79s-6-8.31-13-1.67-12.57,18.21-12.42,25.79,6,8.32,13,1.67"/></g></g><polygon class="cls-8" points="189.85 211.22 192.39 341.84 39.34 253.48 36.8 122.86 189.85 211.22"/><g class="cls-2"><g class="cls-9"><path class="cls-5" d="M169.28,230.81c.15,7.57-6.95,9.56-15.82,4.44s-16.22-15.45-16.36-23,7-9.57,15.82-4.44,16.21,15.45,16.36,23m-38.6,10.83c.15,7.57-6.94,9.57-15.81,4.44s-16.21-15.45-16.36-23,6.95-9.56,15.82-4.44,16.21,15.45,16.35,23M92.1,252.48c.14,7.57-7,9.56-15.83,4.44s-16.21-15.45-16.36-23,7-9.56,15.83-4.44S92,244.9,92.1,252.48m-53-113.42L41,239.54c.14,7.4,7.29,17.45,16,22.46L174.7,330c8.67,5,15.58,3.07,15.44-4.33l-2-100.48c-.14-7.39-7.29-17.45-16-22.45l-117.74-68c-8.67-5-15.58-3.06-15.43,4.33"/><path class="cls-6" d="M99.29,223.51c.14,7.21,7.12,17,15.56,21.9s15.19,3,15.05-4.23-7.12-17-15.55-21.89-15.2-3-15.06,4.22"/><path class="cls-7" d="M129.9,241.18c.14,7.21-6.61,9.1-15.05,4.23s-15.42-14.69-15.56-21.9,6.61-9.09,15.06-4.22,15.41,14.7,15.55,21.89M98.51,223.06c.15,7.57,7.48,17.9,16.36,23s16,3.13,15.81-4.44-7.47-17.89-16.35-23-16-3.13-15.82,4.44"/><path class="cls-6" d="M60.7,234.35c.14,7.2,7.12,17,15.56,21.9s15.19,3,15-4.23-7.12-17-15.56-21.9-15.19-3-15,4.23"/><path class="cls-7" d="M91.31,252c.14,7.21-6.61,9.1-15,4.23s-15.42-14.7-15.56-21.9,6.61-9.1,15-4.23,15.42,14.7,15.56,21.9m-31.4-18.13c.15,7.58,7.49,17.91,16.36,23s16,3.13,15.83-4.44-7.49-17.91-16.36-23-16-3.13-15.83,4.44"/><path class="cls-6" d="M137.89,212.68c.14,7.21,7.11,17,15.55,21.9s15.2,3,15.06-4.22-7.12-17-15.56-21.91-15.19-3-15.05,4.23"/><path class="cls-7" d="M168.5,230.36c.14,7.2-6.62,9.09-15.06,4.22s-15.41-14.69-15.55-21.9,6.6-9.1,15.05-4.23,15.42,14.7,15.56,21.91m-31.4-18.13c.14,7.57,7.48,17.9,16.36,23s16,3.13,15.82-4.44-7.49-17.9-16.36-23-16-3.13-15.82,4.44"/></g></g><polygon class="cls-10" points="310.66 96.52 189.85 211.22 36.8 122.86 157.61 8.16 310.66 96.52"/><g class="cls-2"><g class="cls-11"><path class="cls-5" d="M90.81,128.5c-4.29-2.48-7-6.06-7.66-10.1s.87-8,4.27-11.25a23,23,0,0,1,13.69-5.8,25.52,25.52,0,0,1,15.1,3c4.3,2.48,7,6.07,7.66,10.11s-.88,8-4.27,11.24c-7,6.65-19.92,7.9-28.79,2.77m78.49,45.32c-8.87-5.12-10.4-14.7-3.39-21.35s19.92-7.89,28.79-2.77,10.39,14.7,3.39,21.35-19.92,7.89-28.79,2.77M161,121.75c-8.88-5.12-10.4-14.7-3.4-21.34s19.92-7.9,28.79-2.77,10.39,14.69,3.39,21.34-19.91,7.89-28.78,2.77m-8.28-52.07c-8.87-5.12-10.39-14.7-3.39-21.35s19.92-7.89,28.79-2.77,10.4,14.71,3.39,21.35-19.92,7.9-28.79,2.77M231.25,115c-4.3-2.48-7-6.07-7.66-10.1s.88-8,4.27-11.25c7-6.65,19.92-7.89,28.79-2.77,4.3,2.48,7,6.07,7.66,10.1s-.88,8-4.27,11.25A23.07,23.07,0,0,1,246.35,118a25.56,25.56,0,0,1-15.1-3m60.2-27.2-117.73-68c-8.67-5-21.25-3.79-28.09,2.71L52.7,110.76c-6.84,6.49-5.36,15.82,3.31,20.82l117.74,68c8.66,5,21.24,3.79,28.08-2.7l92.93-88.24c6.84-6.49,5.36-15.82-3.31-20.82"/><path class="cls-6" d="M185.81,98.22c-8.44-4.87-20.72-3.69-27.39,2.64s-5.21,15.43,3.23,20.3,20.72,3.69,27.38-2.63,5.22-15.44-3.22-20.31"/><path class="cls-7" d="M161.65,121.16c-8.44-4.87-9.88-14-3.23-20.3s19-7.51,27.39-2.64,9.88,14,3.22,20.31-18.94,7.5-27.38,2.63m24.78-23.52c-8.87-5.13-21.79-3.88-28.79,2.77s-5.48,16.22,3.4,21.34,21.77,3.88,28.78-2.77,5.48-16.22-3.39-21.34"/><path class="cls-6" d="M177.54,46.15c-8.44-4.87-20.72-3.69-27.39,2.64s-5.21,15.43,3.23,20.31,20.73,3.69,27.39-2.64S186,51,177.54,46.15"/><path class="cls-7" d="M153.38,69.1c-8.44-4.88-9.89-14-3.23-20.31s18.95-7.51,27.39-2.64,9.89,14,3.23,20.31-19,7.51-27.39,2.64m24.78-23.54c-8.87-5.12-21.79-3.88-28.79,2.77s-5.48,16.23,3.39,21.35,21.79,3.88,28.79-2.77,5.48-16.22-3.39-21.35"/><path class="cls-6" d="M194.08,150.29c-8.45-4.87-20.72-3.69-27.38,2.63s-5.22,15.44,3.22,20.31,20.72,3.69,27.39-2.63,5.21-15.43-3.23-20.31"/><path class="cls-7" d="M169.92,173.23c-8.44-4.87-9.88-14-3.22-20.31s18.93-7.5,27.38-2.63,9.89,14,3.23,20.31-18.95,7.5-27.39,2.63M194.7,149.7c-8.87-5.12-21.79-3.88-28.79,2.77s-5.48,16.23,3.39,21.35,21.79,3.88,28.79-2.77,5.48-16.23-3.39-21.35"/><path class="cls-6" d="M115.59,105a24.26,24.26,0,0,0-14.36-2.89,21.86,21.86,0,0,0-13,5.52c-3.22,3.06-4.66,6.86-4,10.7s3.19,7.24,7.28,9.61c8.44,4.87,20.73,3.69,27.39-2.64,3.23-3.06,4.66-6.87,4.06-10.7s-3.2-7.24-7.29-9.6"/><path class="cls-7" d="M91.43,127.92c-4.09-2.37-6.67-5.78-7.28-9.61s.83-7.64,4-10.7a21.86,21.86,0,0,1,13-5.52A24.26,24.26,0,0,1,115.59,105c4.09,2.36,6.68,5.77,7.29,9.6s-.83,7.64-4.06,10.7c-6.66,6.33-18.95,7.51-27.39,2.64m24.78-23.54a25.52,25.52,0,0,0-15.1-3,23,23,0,0,0-13.69,5.8c-3.4,3.23-4.91,7.22-4.27,11.25s3.37,7.62,7.66,10.1c8.87,5.13,21.79,3.88,28.79-2.77,3.39-3.21,4.91-7.21,4.27-11.24s-3.36-7.63-7.66-10.11"/><path class="cls-6" d="M256,91.47c-8.44-4.88-20.72-3.69-27.38,2.63-3.23,3.07-4.67,6.87-4.06,10.7s3.19,7.25,7.28,9.61a24.33,24.33,0,0,0,14.36,2.89,22,22,0,0,0,13-5.52c3.23-3.07,4.66-6.87,4.05-10.7s-3.19-7.25-7.28-9.61"/><path class="cls-7" d="M231.87,114.41c-4.09-2.36-6.68-5.78-7.28-9.61s.83-7.63,4.06-10.7c6.66-6.32,18.94-7.51,27.38-2.63,4.09,2.36,6.67,5.77,7.28,9.61s-.82,7.63-4.05,10.7a22,22,0,0,1-13,5.52,24.33,24.33,0,0,1-14.36-2.89m24.78-23.53c-8.87-5.12-21.79-3.88-28.79,2.77-3.39,3.22-4.91,7.21-4.27,11.25s3.36,7.62,7.66,10.1a25.56,25.56,0,0,0,15.1,3A23.07,23.07,0,0,0,260,112.23C263.43,109,265,105,264.31,101s-3.36-7.62-7.66-10.1"/></g></g></g></svg>