<svg id="Layer_1" data-name="Layer 1" xmlns="http://www.w3.org/2000/svg" xmlns:xlink="http://www.w3.org/1999/xlink" viewBox="0 0 350 350"><defs><style>.cls-1{fill:none;}.cls-2{isolation:isolate;}.cls-3{fill:#3c7d18;}.cls-4{clip-path:url(#clip-path);}.cls-5{fill:#45911c;}.cls-6{fill:#fffdf2;}.cls-7{fill:#ffe467;}.cls-8{fill:#387517;}.cls-9{clip-path:url(#clip-path-2);}.cls-10{fill:#40871a;}.cls-11{clip-path:url(#clip-path-3);}</style><clipPath id="clip-path"><polygon class="cls-1" points="310.66 96.53 313.2 227.14 192.39 341.84 189.85 211.23 310.66 96.53"/></clipPath><clipPath id="clip-path-2"><polygon class="cls-1" points="189.85 211.23 192.39 341.84 39.34 253.48 36.8 122.86 189.85 211.23"/></clipPath><clipPath id="clip-path-3"><polygon class="cls-1" points="310.66 96.53 189.85 211.23 36.8 122.86 157.6 8.16 310.66 96.53"/></clipPath></defs><title>dices</title><g class="cls-2"><polygon class="cls-3" points="310.66 96.53 313.2 227.14 192.39 341.84 189.85 211.23 310.66 96.53"/><g class="cls-2"><g class="cls-4"><path class="cls-5" d="M251.26,205.46c7-6.65,12.82-5.91,13,1.66s-5.43,19.15-12.43,25.8-12.81,5.89-13-1.68,5.42-19.13,12.43-25.78m-45,121.47,92.93-88.23c6.84-6.49,12.27-17.76,12.13-25.16l-2-100.47c-.14-7.4-5.81-8.13-12.65-1.64l-92.92,88.24c-6.85,6.49-12.28,17.76-12.13,25.16l2,100.47c.14,7.4,5.81,8.13,12.65,1.63"/><path class="cls-6" d="M251.78,232.25c6.66-6.33,12-17.33,11.83-24.54s-5.68-7.91-12.34-1.58-12,17.32-11.82,24.52,5.67,7.92,12.33,1.6"/><path class="cls-7" d="M251.27,206.13c6.66-6.33,12.2-5.62,12.34,1.58s-5.17,18.21-11.83,24.54-12.19,5.6-12.33-1.6,5.16-18.2,11.82-24.52m.52,26.79c7-6.65,12.58-18.22,12.43-25.8s-6-8.31-13-1.66-12.58,18.21-12.43,25.78,6,8.33,13,1.68"/></g></g><polygon class="cls-8" points="189.85 211.23 192.39 341.84 39.34 253.48 36.8 122.86 189.85 211.23"/><g class="cls-2"><g class="cls-9"><path class="cls-5" d="M152.92,207.79a37.38,37.38,0,0,1,11.46,10.59c3.09,4.34,4.83,8.76,4.9,12.43s-1.53,6.15-4.52,7-7-.07-11.3-2.55A37.29,37.29,0,0,1,142,224.65c-3.09-4.34-4.83-8.76-4.9-12.42-.15-7.57,7-9.57,15.82-4.44M74.44,162.47c8.87,5.12,16.21,15.45,16.35,23s-7,9.56-15.82,4.44-16.21-15.45-16.36-23,7-9.56,15.83-4.44m39.89,56.15c8.87,5.12,16.21,15.45,16.35,23s-7,9.56-15.82,4.44-16.2-15.45-16.35-23,6.94-9.56,15.82-4.44m39.9,56.15c8.87,5.12,16.21,15.45,16.35,23s-7,9.57-15.82,4.44-16.21-15.45-16.36-23,6.95-9.56,15.83-4.44M75.74,229.45A37.46,37.46,0,0,1,87.19,240c3.09,4.36,4.83,8.77,4.91,12.44.14,7.57-7,9.56-15.83,4.44a37.5,37.5,0,0,1-11.46-10.59c-3.09-4.35-4.83-8.77-4.9-12.43s1.54-6.15,4.53-7,7,.07,11.3,2.55M57,262,174.7,330c8.67,5,15.58,3.07,15.44-4.33l-2-100.48c-.14-7.39-7.28-17.45-16-22.45l-117.74-68c-8.67-5-15.58-3.06-15.43,4.34L41,239.54c.14,7.4,7.29,17.45,16,22.46"/><path class="cls-6" d="M114.85,245.41c8.44,4.88,15.19,3,15.05-4.22s-7.12-17-15.56-21.9-15.19-3-15,4.22,7.12,17,15.56,21.9"/><path class="cls-7" d="M114.34,219.29c8.44,4.87,15.42,14.7,15.56,21.9s-6.61,9.1-15.05,4.22-15.42-14.69-15.56-21.9,6.62-9.09,15-4.22m.52,26.79c8.87,5.12,16,3.13,15.82-4.44s-7.48-17.9-16.35-23-16-3.13-15.82,4.44,7.48,17.9,16.35,23"/><path class="cls-6" d="M154.75,301.56c8.44,4.88,15.19,3,15.05-4.22s-7.12-17-15.56-21.9-15.2-3-15.06,4.22,7.12,17,15.57,21.9"/><path class="cls-7" d="M154.24,275.44c8.44,4.87,15.42,14.7,15.56,21.9s-6.61,9.1-15.05,4.22-15.43-14.69-15.57-21.9,6.62-9.1,15.06-4.22m.52,26.79c8.87,5.13,16,3.13,15.82-4.44s-7.48-17.9-16.35-23-16-3.13-15.83,4.44,7.49,17.9,16.36,23"/><path class="cls-6" d="M75,189.26c8.44,4.88,15.18,3,15-4.22s-7.11-17-15.55-21.9-15.2-3-15.06,4.23,7.12,17,15.57,21.89"/><path class="cls-7" d="M74.45,163.14C82.89,168,89.86,177.83,90,185s-6.6,9.1-15,4.22-15.43-14.69-15.57-21.89,6.62-9.1,15.06-4.23m.52,26.8c8.87,5.12,16,3.13,15.82-4.44s-7.48-17.91-16.35-23-16-3.13-15.83,4.44,7.49,17.9,16.36,23"/><path class="cls-6" d="M153.44,234.58c4.09,2.36,7.91,3.22,10.75,2.42s4.38-3.15,4.31-6.64-1.73-7.69-4.67-11.83a35.52,35.52,0,0,0-10.89-10.07c-8.45-4.88-15.2-3-15.06,4.22.07,3.49,1.73,7.69,4.67,11.83a35.52,35.52,0,0,0,10.89,10.07"/><path class="cls-7" d="M152.94,208.46a35.52,35.52,0,0,1,10.89,10.07c2.94,4.14,4.6,8.34,4.67,11.83s-1.47,5.85-4.31,6.64-6.66-.06-10.75-2.42a35.52,35.52,0,0,1-10.89-10.07c-2.94-4.14-4.6-8.34-4.67-11.83-.14-7.2,6.61-9.1,15.06-4.22m.52,26.79c4.29,2.48,8.3,3.39,11.3,2.55s4.59-3.32,4.52-7-1.81-8.09-4.9-12.43a37.38,37.38,0,0,0-11.46-10.59c-8.87-5.13-16-3.13-15.82,4.44.07,3.66,1.81,8.08,4.9,12.42a37.29,37.29,0,0,0,11.46,10.6"/><path class="cls-6" d="M76.26,256.25c8.44,4.87,15.18,3,15-4.23-.06-3.49-1.72-7.69-4.65-11.82a35.7,35.7,0,0,0-10.9-10.08c-4.09-2.36-7.91-3.22-10.75-2.42s-4.37,3.16-4.3,6.65,1.72,7.69,4.66,11.82a35.57,35.57,0,0,0,10.9,10.08"/><path class="cls-7" d="M75.75,230.12a35.7,35.7,0,0,1,10.9,10.08c2.93,4.13,4.59,8.33,4.65,11.82.14,7.2-6.6,9.1-15,4.23a35.57,35.57,0,0,1-10.9-10.08c-2.94-4.13-4.6-8.33-4.66-11.82s1.46-5.85,4.3-6.65,6.66.06,10.75,2.42m.52,26.8c8.87,5.12,16,3.13,15.83-4.44-.08-3.67-1.82-8.08-4.91-12.44a37.46,37.46,0,0,0-11.45-10.59c-4.3-2.48-8.32-3.38-11.3-2.55s-4.6,3.33-4.53,7,1.81,8.08,4.9,12.43a37.5,37.5,0,0,0,11.46,10.59"/></g></g><polygon class="cls-10" points="310.66 96.53 189.85 211.23 36.8 122.86 157.6 8.16 310.66 96.53"/><g class="cls-2"><g class="cls-11"><path class="cls-5" d="M90.81,128.5c-4.3-2.48-7-6.06-7.66-10.1s.87-8,4.27-11.25a23,23,0,0,1,13.69-5.8,25.54,25.54,0,0,1,15.1,3c4.3,2.48,7,6.07,7.66,10.11s-.88,8-4.27,11.24c-7,6.65-19.92,7.9-28.79,2.77m78.49,45.32c-8.88-5.12-10.4-14.7-3.39-21.35s19.92-7.89,28.79-2.77,10.39,14.7,3.39,21.35-19.92,7.89-28.79,2.77M152.76,69.68c-8.87-5.12-10.39-14.7-3.39-21.35s19.92-7.89,28.79-2.77,10.39,14.71,3.39,21.35-19.92,7.9-28.79,2.77M231.25,115c-4.3-2.48-7-6.07-7.66-10.1s.88-8,4.27-11.25c7-6.65,19.92-7.89,28.79-2.77,4.3,2.48,7,6.07,7.66,10.1s-.88,8-4.27,11.25A23.07,23.07,0,0,1,246.35,118a25.56,25.56,0,0,1-15.1-3m60.2-27.2-117.74-68c-8.66-5-21.24-3.79-28.08,2.71L52.7,110.76c-6.84,6.49-5.36,15.82,3.31,20.82l117.73,68c8.67,5,21.25,3.79,28.09-2.7l92.93-88.24c6.84-6.49,5.36-15.82-3.31-20.82"/><path class="cls-6" d="M177.54,46.15c-8.44-4.87-20.73-3.69-27.39,2.64s-5.21,15.43,3.23,20.31,20.72,3.69,27.39-2.64S186,51,177.54,46.15"/><path class="cls-7" d="M153.38,69.1c-8.44-4.88-9.89-14-3.23-20.31s18.95-7.51,27.39-2.64,9.89,14,3.23,20.31-19,7.51-27.39,2.64m24.78-23.54c-8.87-5.12-21.79-3.88-28.79,2.77s-5.48,16.23,3.39,21.35,21.79,3.88,28.79-2.77,5.48-16.22-3.39-21.35"/><path class="cls-6" d="M194.07,150.29c-8.44-4.87-20.71-3.69-27.37,2.63s-5.23,15.44,3.22,20.31,20.72,3.69,27.39-2.63,5.21-15.43-3.24-20.31"/><path class="cls-7" d="M169.92,173.23c-8.45-4.87-9.89-14-3.22-20.31s18.93-7.5,27.37-2.63,9.9,14,3.24,20.31-18.95,7.5-27.39,2.63M194.7,149.7c-8.87-5.12-21.79-3.88-28.79,2.77s-5.49,16.23,3.39,21.35,21.79,3.88,28.79-2.77,5.48-16.23-3.39-21.35"/><path class="cls-6" d="M115.59,105a24.26,24.26,0,0,0-14.36-2.89,21.86,21.86,0,0,0-13,5.52c-3.23,3.06-4.66,6.86-4,10.7s3.19,7.24,7.28,9.61c8.44,4.87,20.72,3.69,27.39-2.64,3.23-3.06,4.66-6.87,4.05-10.7s-3.19-7.24-7.28-9.6"/><path class="cls-7" d="M91.43,127.92c-4.09-2.37-6.68-5.78-7.28-9.61s.82-7.64,4-10.7a21.86,21.86,0,0,1,13-5.52A24.26,24.26,0,0,1,115.59,105c4.09,2.36,6.68,5.77,7.28,9.6s-.82,7.64-4.05,10.7c-6.67,6.33-18.95,7.51-27.39,2.64m24.78-23.54a25.54,25.54,0,0,0-15.1-3,23,23,0,0,0-13.69,5.8c-3.4,3.23-4.91,7.22-4.27,11.25s3.36,7.62,7.66,10.1c8.87,5.13,21.79,3.88,28.79-2.77,3.39-3.21,4.91-7.21,4.27-11.24s-3.36-7.63-7.66-10.11"/><path class="cls-6" d="M256,91.47c-8.44-4.88-20.72-3.69-27.38,2.63-3.23,3.07-4.67,6.87-4.07,10.7s3.2,7.25,7.29,9.61a24.33,24.33,0,0,0,14.36,2.89,22,22,0,0,0,13-5.52c3.22-3.07,4.66-6.87,4.05-10.7s-3.19-7.25-7.28-9.61"/><path class="cls-7" d="M231.87,114.41c-4.09-2.36-6.68-5.78-7.29-9.61s.84-7.63,4.07-10.7c6.66-6.32,18.94-7.51,27.38-2.63,4.09,2.36,6.67,5.77,7.28,9.61s-.83,7.63-4.05,10.7a22,22,0,0,1-13,5.52,24.33,24.33,0,0,1-14.36-2.89m24.78-23.53c-8.87-5.12-21.79-3.88-28.79,2.77-3.39,3.22-4.91,7.21-4.27,11.25s3.36,7.62,7.66,10.1a25.56,25.56,0,0,0,15.1,3A23.07,23.07,0,0,0,260,112.23c3.39-3.22,4.9-7.21,4.27-11.25s-3.36-7.62-7.66-10.1"/></g></g></g></svg>