<svg id="Layer_1" data-name="Layer 1" xmlns="http://www.w3.org/2000/svg" xmlns:xlink="http://www.w3.org/1999/xlink" viewBox="0 0 350 350"><defs><style>.cls-1{fill:none;}.cls-2{isolation:isolate;}.cls-3{fill:#3c7d18;}.cls-4{clip-path:url(#clip-path);}.cls-5{fill:#45911c;}.cls-6{fill:#fffdf2;}.cls-7{fill:#ffe467;}.cls-8{fill:#387517;}.cls-9{clip-path:url(#clip-path-2);}.cls-10{fill:#40871a;}.cls-11{clip-path:url(#clip-path-3);}</style><clipPath id="clip-path"><polygon class="cls-1" points="310.66 96.53 313.2 227.14 192.39 341.84 189.85 211.23 310.66 96.53"/></clipPath><clipPath id="clip-path-2"><polygon class="cls-1" points="189.85 211.23 192.39 341.84 39.34 253.48 36.8 122.86 189.85 211.23"/></clipPath><clipPath id="clip-path-3"><polygon class="cls-1" points="310.66 96.53 189.85 211.23 36.8 122.86 157.6 8.16 310.66 96.53"/></clipPath></defs><title>dices</title><g class="cls-2"><polygon class="cls-3" points="310.66 96.53 313.2 227.14 192.39 341.84 189.85 211.23 310.66 96.53"/><g class="cls-2"><g class="cls-4"><path class="cls-5" d="M219.63,201.37c7-6.65,12.82-5.9,13,1.67s-5.43,19.15-12.43,25.8-12.82,5.89-13-1.68,5.43-19.14,12.43-25.79m63.26,8.16c7-6.65,12.82-5.9,13,1.68s-5.43,19.14-12.43,25.79-12.82,5.9-13-1.68,5.43-19.14,12.44-25.79M206.3,326.93l92.93-88.23c6.84-6.49,12.27-17.76,12.13-25.16l-2-100.47c-.14-7.4-5.81-8.13-12.65-1.64l-92.92,88.24c-6.85,6.49-12.28,17.76-12.13,25.16l2,100.47c.14,7.4,5.81,8.13,12.65,1.63"/><path class="cls-6" d="M283.41,236.33c6.66-6.33,12-17.33,11.82-24.54s-5.67-7.92-12.33-1.59-12,17.33-11.83,24.54,5.67,7.91,12.34,1.59"/><path class="cls-7" d="M282.9,210.2c6.66-6.33,12.19-5.61,12.33,1.59s-5.16,18.21-11.82,24.54-12.2,5.61-12.34-1.59,5.17-18.21,11.83-24.54m.52,26.8c7-6.65,12.58-18.22,12.43-25.79s-6-8.33-13-1.68-12.59,18.22-12.44,25.79,6,8.33,13,1.68"/><path class="cls-6" d="M220.15,228.16c6.67-6.33,12-17.32,11.83-24.52s-5.67-7.93-12.33-1.6-12,17.33-11.83,24.53,5.67,7.92,12.33,1.59"/><path class="cls-7" d="M219.65,202c6.66-6.33,12.19-5.61,12.33,1.6s-5.16,18.19-11.83,24.52-12.19,5.62-12.33-1.59S213,208.37,219.65,202m.52,26.8c7-6.65,12.58-18.23,12.43-25.8s-6-8.32-13-1.67-12.58,18.22-12.43,25.79,6,8.32,13,1.68"/></g></g><polygon class="cls-8" points="189.85 211.23 192.39 341.84 39.34 253.48 36.8 122.86 189.85 211.23"/><g class="cls-2"><g class="cls-9"><path class="cls-5" d="M74.44,162.47c8.87,5.12,16.21,15.45,16.35,23s-7,9.56-15.82,4.44-16.21-15.45-16.36-23,7-9.56,15.83-4.44m39.89,56.15c8.87,5.12,16.21,15.45,16.35,23s-7,9.56-15.82,4.44-16.2-15.45-16.35-23,6.94-9.56,15.82-4.44m39.9,56.15c8.87,5.12,16.21,15.45,16.35,23s-7,9.57-15.82,4.44-16.21-15.45-16.36-23,6.95-9.56,15.83-4.44M57,262,174.7,330c8.67,5,15.58,3.07,15.44-4.33l-2-100.48c-.14-7.39-7.28-17.45-16-22.45l-117.74-68c-8.67-5-15.58-3.06-15.43,4.34L41,239.54c.14,7.4,7.29,17.45,16,22.46"/><path class="cls-6" d="M114.85,245.41c8.44,4.88,15.19,3,15.05-4.22s-7.12-17-15.56-21.9-15.19-3-15,4.22,7.12,17,15.56,21.9"/><path class="cls-7" d="M114.34,219.29c8.44,4.87,15.42,14.7,15.56,21.9s-6.61,9.1-15.05,4.22-15.42-14.69-15.56-21.9,6.62-9.09,15-4.22m.52,26.79c8.87,5.12,16,3.13,15.82-4.44s-7.48-17.9-16.35-23-16-3.13-15.82,4.44,7.48,17.9,16.35,23"/><path class="cls-6" d="M154.75,301.56c8.44,4.88,15.19,3,15.05-4.22s-7.12-17-15.56-21.9-15.2-3-15.06,4.22,7.12,17,15.57,21.9"/><path class="cls-7" d="M154.24,275.44c8.44,4.87,15.42,14.7,15.56,21.9s-6.61,9.1-15.05,4.22-15.43-14.69-15.57-21.9,6.62-9.1,15.06-4.22m.52,26.79c8.87,5.13,16,3.13,15.82-4.44s-7.48-17.9-16.35-23-16-3.13-15.83,4.44,7.49,17.9,16.36,23"/><path class="cls-6" d="M75,189.26c8.44,4.88,15.18,3,15-4.22s-7.11-17-15.55-21.9-15.2-3-15.06,4.23,7.12,17,15.57,21.89"/><path class="cls-7" d="M74.45,163.14C82.89,168,89.86,177.83,90,185s-6.6,9.1-15,4.22-15.43-14.69-15.57-21.89,6.62-9.1,15.06-4.23m.52,26.8c8.87,5.12,16,3.13,15.82-4.44s-7.48-17.91-16.35-23-16-3.13-15.83,4.44,7.49,17.9,16.36,23"/></g></g><polygon class="cls-10" points="310.66 96.53 189.85 211.23 36.8 122.86 157.6 8.16 310.66 96.53"/><g class="cls-2"><g class="cls-11"><path class="cls-5" d="M161,121.75c-8.87-5.12-10.39-14.7-3.39-21.34s19.92-7.9,28.79-2.77,10.39,14.69,3.38,21.34-19.9,7.89-28.78,2.77M291.45,87.8l-117.74-68c-8.66-5-21.24-3.79-28.08,2.71L52.7,110.76c-6.84,6.49-5.36,15.82,3.31,20.82l117.73,68c8.67,5,21.25,3.79,28.09-2.7l92.93-88.24c6.84-6.49,5.36-15.82-3.31-20.82"/><path class="cls-6" d="M185.81,98.22c-8.44-4.87-20.73-3.69-27.39,2.64s-5.21,15.43,3.23,20.3,20.72,3.69,27.38-2.63,5.22-15.44-3.22-20.31"/><path class="cls-7" d="M161.65,121.16c-8.44-4.87-9.89-14-3.23-20.3s19-7.51,27.39-2.64,9.88,14,3.22,20.31-18.94,7.5-27.38,2.63m24.78-23.52c-8.87-5.13-21.79-3.88-28.79,2.77s-5.48,16.22,3.39,21.34,21.78,3.88,28.78-2.77,5.49-16.22-3.38-21.34"/></g></g></g></svg>