<svg id="Layer_1" data-name="Layer 1" xmlns="http://www.w3.org/2000/svg" xmlns:xlink="http://www.w3.org/1999/xlink" viewBox="0 0 350 350"><defs><style>.cls-1{fill:none;}.cls-2{isolation:isolate;}.cls-3{fill:#3c7d18;}.cls-4{clip-path:url(#clip-path);}.cls-5{fill:#45911c;}.cls-6{fill:#fffdf2;}.cls-7{fill:#ffe467;}.cls-8{fill:#387517;}.cls-9{clip-path:url(#clip-path-2);}.cls-10{fill:#40871a;}.cls-11{clip-path:url(#clip-path-3);}</style><clipPath id="clip-path"><polygon class="cls-1" points="310.66 96.52 313.2 227.14 192.39 341.84 189.85 211.22 310.66 96.52"/></clipPath><clipPath id="clip-path-2"><polygon class="cls-1" points="189.85 211.22 192.39 341.84 39.34 253.48 36.8 122.86 189.85 211.22"/></clipPath><clipPath id="clip-path-3"><polygon class="cls-1" points="310.66 96.52 189.85 211.22 36.8 122.86 157.61 8.16 310.66 96.52"/></clipPath></defs><title>dices</title><g class="cls-2"><polygon class="cls-3" points="310.66 96.52 313.2 227.14 192.39 341.84 189.85 211.22 310.66 96.52"/><g class="cls-2"><g class="cls-4"><path class="cls-5" d="M281.58,142.55c3.39-3.22,6.61-4.82,9.06-4.51s3.84,2.51,3.91,6.18-1.18,8.37-3.53,13.24a43.77,43.77,0,0,1-8.9,12.55c-3.39,3.22-6.61,4.82-9.06,4.5s-3.84-2.5-3.91-6.17c-.15-7.57,5.43-19.14,12.43-25.79m-61.95,58.82c7-6.65,12.82-5.9,13,1.67s-5.43,19.14-12.43,25.79-12.82,5.9-13-1.67,5.43-19.14,12.43-25.79m63.25,8.16c7-6.65,12.82-5.9,13,1.67s-5.43,19.15-12.43,25.8-12.82,5.89-13-1.68,5.43-19.14,12.43-25.79m-61.95,58.82c3.39-3.22,6.61-4.82,9.06-4.5s3.84,2.51,3.91,6.17c.15,7.57-5.43,19.15-12.43,25.8-3.4,3.22-6.61,4.82-9.06,4.5s-3.84-2.51-3.91-6.18,1.18-8.37,3.53-13.24a44,44,0,0,1,8.9-12.55M206.3,326.93l92.93-88.23c6.84-6.5,12.27-17.76,12.12-25.16l-2-100.48c-.14-7.39-5.81-8.12-12.65-1.63l-92.93,88.23c-6.84,6.5-12.27,17.77-12.12,25.16l2,100.48c.14,7.4,5.81,8.13,12.65,1.63"/><path class="cls-6" d="M283.4,236.33c6.67-6.33,12-17.33,11.83-24.54s-5.67-7.92-12.33-1.59-12,17.33-11.83,24.53,5.67,7.92,12.33,1.6"/><path class="cls-7" d="M282.9,210.2c6.66-6.33,12.19-5.61,12.33,1.59S290.07,230,283.4,236.33s-12.19,5.61-12.33-1.6,5.16-18.2,11.83-24.53m.52,26.8c7-6.65,12.58-18.23,12.43-25.8s-6-8.32-13-1.67-12.58,18.22-12.43,25.79,6,8.32,13,1.68"/><path class="cls-6" d="M220.15,228.16c6.67-6.33,12-17.32,11.83-24.53s-5.67-7.92-12.33-1.59-12,17.33-11.83,24.53,5.67,7.91,12.33,1.59"/><path class="cls-7" d="M219.65,202c6.66-6.33,12.19-5.61,12.33,1.59s-5.16,18.2-11.83,24.53-12.19,5.62-12.33-1.59S213,208.36,219.65,202m.52,26.79c7-6.65,12.58-18.22,12.43-25.79s-6-8.32-13-1.67-12.58,18.22-12.43,25.79,6,8.32,13,1.67"/><path class="cls-6" d="M282.1,169.34a41.79,41.79,0,0,0,8.47-11.93c2.23-4.63,3.43-9.11,3.36-12.6s-1.39-5.57-3.72-5.87-5.39,1.21-8.62,4.28c-6.66,6.32-12,17.33-11.82,24.53.06,3.49,1.39,5.58,3.72,5.88s5.38-1.23,8.61-4.29"/><path class="cls-7" d="M281.59,143.22c3.23-3.07,6.29-4.59,8.62-4.28s3.65,2.38,3.72,5.87-1.13,8-3.36,12.6a41.79,41.79,0,0,1-8.47,11.93c-3.23,3.06-6.29,4.59-8.61,4.29s-3.66-2.39-3.72-5.88c-.14-7.2,5.16-18.21,11.82-24.53m.53,26.79a43.77,43.77,0,0,0,8.9-12.55c2.35-4.87,3.6-9.57,3.53-13.24s-1.46-5.86-3.91-6.18-5.67,1.29-9.06,4.51c-7,6.65-12.58,18.22-12.43,25.79.07,3.67,1.46,5.86,3.91,6.17s5.67-1.28,9.06-4.5"/><path class="cls-6" d="M221.45,295.15c6.67-6.33,12-17.33,11.83-24.53-.07-3.49-1.39-5.58-3.72-5.88S224.18,266,221,269A41.71,41.71,0,0,0,212.48,281c-2.23,4.63-3.43,9.1-3.36,12.59s1.39,5.58,3.72,5.88,5.39-1.22,8.61-4.28"/><path class="cls-7" d="M221,269c3.23-3.07,6.28-4.58,8.61-4.28s3.65,2.39,3.72,5.88c.14,7.2-5.16,18.2-11.83,24.53-3.22,3.06-6.28,4.58-8.61,4.28s-3.65-2.38-3.72-5.88,1.13-8,3.36-12.59A41.71,41.71,0,0,1,221,269m.52,26.8c7-6.65,12.58-18.23,12.43-25.8-.07-3.66-1.46-5.86-3.91-6.17s-5.67,1.28-9.06,4.5A44,44,0,0,0,212,280.9c-2.35,4.87-3.6,9.58-3.53,13.24s1.46,5.86,3.91,6.18,5.66-1.28,9.06-4.5"/></g></g><polygon class="cls-8" points="189.85 211.22 192.39 341.84 39.34 253.48 36.8 122.86 189.85 211.22"/><g class="cls-2"><g class="cls-9"><path class="cls-5" d="M152.92,207.79a37.38,37.38,0,0,1,11.46,10.59c3.09,4.34,4.83,8.76,4.9,12.43s-1.53,6.15-4.52,7-7-.07-11.3-2.55A37.41,37.41,0,0,1,142,224.65c-3.09-4.34-4.83-8.76-4.9-12.42-.15-7.57,7-9.57,15.82-4.44M74.44,162.47c8.87,5.12,16.21,15.45,16.36,23s-7,9.56-15.83,4.44-16.21-15.45-16.36-23,7-9.56,15.83-4.44m79.14,78.81A37.46,37.46,0,0,1,165,251.87c3.09,4.35,4.83,8.76,4.9,12.43s-1.53,6.15-4.52,7-7-.07-11.3-2.55c-8.87-5.12-16.21-15.45-16.36-23s6.95-9.56,15.83-4.44M75.09,196c8.87,5.12,16.21,15.44,16.36,23s-7,9.57-15.83,4.44S59.41,208,59.26,200.4s7-9.56,15.83-4.43m79.14,78.8c8.87,5.12,16.21,15.45,16.36,23s-7,9.57-15.83,4.44-16.21-15.45-16.36-23,6.95-9.56,15.83-4.44M75.74,229.45A37.46,37.46,0,0,1,87.19,240c3.09,4.36,4.84,8.77,4.91,12.44.14,7.57-7,9.56-15.83,4.44a37.5,37.5,0,0,1-11.46-10.59c-3.08-4.35-4.82-8.77-4.9-12.43s1.54-6.15,4.53-7,7,.07,11.3,2.55M57,262,174.7,330c8.67,5,15.58,3.07,15.44-4.33l-1.95-100.48c-.15-7.39-7.29-17.45-16-22.45l-117.74-68c-8.66-5-15.58-3.06-15.43,4.34L41,239.54c.15,7.4,7.29,17.45,16,22.46"/><path class="cls-6" d="M154.75,301.56c8.44,4.88,15.19,3,15.05-4.22s-7.12-17-15.56-21.9-15.19-3-15.05,4.22,7.12,17,15.56,21.9"/><path class="cls-7" d="M154.24,275.44c8.44,4.87,15.42,14.7,15.56,21.9s-6.61,9.1-15.05,4.22-15.42-14.69-15.56-21.9,6.61-9.1,15.05-4.22m.52,26.79c8.87,5.13,16,3.13,15.83-4.44s-7.49-17.9-16.36-23-16-3.13-15.83,4.44,7.49,17.9,16.36,23"/><path class="cls-6" d="M75,189.26c8.44,4.88,15.18,3,15-4.22s-7.11-17-15.55-21.9-15.19-3-15.05,4.23,7.12,17,15.56,21.89"/><path class="cls-7" d="M74.45,163.14C82.89,168,89.86,177.83,90,185s-6.6,9.1-15,4.22S59.54,174.57,59.4,167.37s6.61-9.1,15.05-4.23m.52,26.8c8.87,5.12,16,3.13,15.83-4.44s-7.49-17.91-16.36-23-16-3.13-15.83,4.44,7.49,17.9,16.36,23"/><path class="cls-6" d="M153.45,234.58c4.09,2.36,7.9,3.22,10.74,2.42s4.38-3.15,4.31-6.64-1.73-7.69-4.67-11.83a35.52,35.52,0,0,0-10.89-10.07c-8.44-4.88-15.2-3-15.06,4.22.07,3.49,1.73,7.69,4.67,11.83a35.55,35.55,0,0,0,10.9,10.07"/><path class="cls-7" d="M152.94,208.46a35.52,35.52,0,0,1,10.89,10.07c2.94,4.14,4.6,8.34,4.67,11.83s-1.47,5.85-4.31,6.64-6.65-.06-10.74-2.42a35.55,35.55,0,0,1-10.9-10.07c-2.94-4.14-4.6-8.34-4.67-11.83-.14-7.2,6.62-9.1,15.06-4.22m.52,26.79c4.29,2.48,8.31,3.39,11.3,2.55s4.59-3.32,4.52-7-1.81-8.09-4.9-12.43a37.38,37.38,0,0,0-11.46-10.59c-8.87-5.13-16-3.13-15.82,4.44.07,3.66,1.81,8.08,4.9,12.42a37.41,37.41,0,0,0,11.46,10.6"/><path class="cls-6" d="M75.61,222.76c8.44,4.87,15.18,3,15-4.23s-7.11-17-15.55-21.9-15.19-3-15,4.22,7.12,17,15.56,21.91"/><path class="cls-7" d="M75.1,196.63c8.44,4.88,15.41,14.7,15.55,21.9s-6.6,9.1-15,4.23-15.42-14.7-15.56-21.91,6.61-9.09,15-4.22m.52,26.79c8.87,5.13,16,3.13,15.83-4.44S84,201.09,75.09,196s-16-3.14-15.83,4.43,7.49,17.9,16.36,23"/><path class="cls-6" d="M154.1,268.07c4.09,2.36,7.9,3.22,10.74,2.42s4.38-3.15,4.31-6.64-1.73-7.69-4.67-11.83A35.52,35.52,0,0,0,153.59,242c-8.44-4.87-15.2-3-15.06,4.22s7.12,17,15.57,21.9"/><path class="cls-7" d="M153.59,242A35.52,35.52,0,0,1,164.48,252c2.94,4.14,4.6,8.34,4.67,11.83s-1.47,5.84-4.31,6.64-6.65-.06-10.74-2.42c-8.45-4.87-15.43-14.7-15.57-21.9s6.62-9.09,15.06-4.22m.52,26.79c4.29,2.48,8.31,3.38,11.3,2.55s4.6-3.32,4.52-7-1.81-8.08-4.9-12.43a37.46,37.46,0,0,0-11.45-10.59c-8.88-5.12-16-3.14-15.83,4.44s7.49,17.9,16.36,23"/><path class="cls-6" d="M76.26,256.25c8.44,4.87,15.19,3,15-4.23-.07-3.49-1.72-7.69-4.66-11.82a35.7,35.7,0,0,0-10.9-10.08c-4.09-2.36-7.9-3.22-10.75-2.42s-4.37,3.16-4.3,6.65,1.73,7.69,4.66,11.82a35.57,35.57,0,0,0,10.9,10.08"/><path class="cls-7" d="M75.75,230.12a35.7,35.7,0,0,1,10.9,10.08c2.94,4.13,4.59,8.33,4.66,11.82.14,7.2-6.61,9.1-15,4.23a35.57,35.57,0,0,1-10.9-10.08c-2.93-4.13-4.59-8.33-4.66-11.82s1.46-5.85,4.3-6.65,6.66.06,10.75,2.42m.52,26.8c8.87,5.12,16,3.13,15.83-4.44-.07-3.67-1.82-8.08-4.91-12.44a37.46,37.46,0,0,0-11.45-10.59c-4.3-2.48-8.32-3.38-11.3-2.55s-4.6,3.33-4.53,7,1.82,8.08,4.9,12.43a37.5,37.5,0,0,0,11.46,10.59"/></g></g><polygon class="cls-10" points="310.66 96.52 189.85 211.22 36.8 122.86 157.61 8.16 310.66 96.52"/><g class="cls-2"><g class="cls-11"><path class="cls-5" d="M169.3,173.82c-8.87-5.12-10.4-14.7-3.39-21.35s19.92-7.89,28.79-2.77,10.39,14.7,3.39,21.35-19.92,7.89-28.79,2.77M152.76,69.68c-8.87-5.12-10.39-14.7-3.39-21.35s19.92-7.89,28.79-2.77,10.4,14.71,3.39,21.35-19.92,7.9-28.79,2.77M291.45,87.8l-117.73-68c-8.67-5-21.25-3.79-28.09,2.71L52.7,110.76c-6.84,6.49-5.36,15.82,3.31,20.82l117.74,68c8.66,5,21.24,3.79,28.08-2.7l92.93-88.24c6.84-6.49,5.36-15.82-3.31-20.82"/><path class="cls-6" d="M177.54,46.15c-8.44-4.87-20.72-3.69-27.39,2.64s-5.21,15.43,3.23,20.31,20.73,3.69,27.39-2.64S186,51,177.54,46.15"/><path class="cls-7" d="M153.38,69.1c-8.44-4.88-9.89-14-3.23-20.31s18.95-7.51,27.39-2.64,9.89,14,3.23,20.31-19,7.51-27.39,2.64m24.78-23.54c-8.87-5.12-21.79-3.88-28.79,2.77s-5.48,16.23,3.39,21.35,21.79,3.88,28.79-2.77,5.48-16.22-3.39-21.35"/><path class="cls-6" d="M194.08,150.29c-8.45-4.87-20.72-3.69-27.38,2.63s-5.22,15.44,3.22,20.31,20.72,3.69,27.39-2.63,5.21-15.43-3.23-20.31"/><path class="cls-7" d="M169.92,173.23c-8.44-4.87-9.88-14-3.22-20.31s18.93-7.5,27.38-2.63,9.89,14,3.23,20.31-18.95,7.5-27.39,2.63M194.7,149.7c-8.87-5.12-21.79-3.88-28.79,2.77s-5.48,16.23,3.39,21.35,21.79,3.88,28.79-2.77,5.48-16.23-3.39-21.35"/></g></g></g></svg>