<svg id="Layer_1" data-name="Layer 1" xmlns="http://www.w3.org/2000/svg" xmlns:xlink="http://www.w3.org/1999/xlink" viewBox="0 0 350 350"><defs><style>.cls-1{fill:none;}.cls-2{isolation:isolate;}.cls-3{fill:#9f2020;}.cls-4{clip-path:url(#clip-path);}.cls-5{fill:#b82525;}.cls-6{fill:#fffdf2;}.cls-7{fill:#ffe467;}.cls-8{fill:#941e1e;}.cls-9{clip-path:url(#clip-path-2);}.cls-10{fill:#ab2222;}.cls-11{clip-path:url(#clip-path-3);}</style><clipPath id="clip-path"><polygon class="cls-1" points="310.66 96.52 313.2 227.14 192.39 341.84 189.85 211.22 310.66 96.52"/></clipPath><clipPath id="clip-path-2"><polygon class="cls-1" points="189.85 211.22 192.39 341.84 39.34 253.47 36.8 122.86 189.85 211.22"/></clipPath><clipPath id="clip-path-3"><polygon class="cls-1" points="310.66 96.52 189.85 211.22 36.8 122.86 157.6 8.16 310.66 96.52"/></clipPath></defs><title>dices</title><g class="cls-2"><polygon class="cls-3" points="310.66 96.52 313.2 227.14 192.39 341.84 189.85 211.22 310.66 96.52"/><g class="cls-2"><g class="cls-4"><path class="cls-5" d="M251.26,205.46c7-6.65,12.82-5.91,13,1.66s-5.43,19.15-12.43,25.8-12.82,5.89-13-1.68,5.42-19.14,12.43-25.78m-45,121.47,92.93-88.23c6.84-6.5,12.27-17.76,12.12-25.16l-2-100.47c-.14-7.4-5.81-8.13-12.65-1.64l-92.92,88.24c-6.85,6.49-12.28,17.76-12.13,25.15l2,100.48c.14,7.4,5.81,8.13,12.65,1.63"/><path class="cls-6" d="M251.78,232.25c6.66-6.33,12-17.34,11.83-24.54s-5.68-7.91-12.34-1.58-12,17.32-11.82,24.52,5.67,7.92,12.33,1.6"/><path class="cls-7" d="M251.27,206.13c6.66-6.33,12.2-5.62,12.34,1.58s-5.17,18.21-11.83,24.54-12.19,5.6-12.33-1.6,5.16-18.2,11.82-24.52m.52,26.79c7-6.65,12.58-18.23,12.43-25.8s-6-8.31-13-1.66-12.58,18.2-12.43,25.78,6,8.32,13,1.68"/></g></g><polygon class="cls-8" points="189.85 211.22 192.39 341.84 39.34 253.47 36.8 122.86 189.85 211.22"/><g class="cls-2"><g class="cls-9"><path class="cls-5" d="M169.28,230.81c.15,7.57-6.95,9.56-15.83,4.44s-16.21-15.45-16.36-23,7-9.57,15.83-4.45,16.21,15.46,16.36,23m-38.6,10.83c.15,7.57-6.94,9.56-15.82,4.44s-16.21-15.45-16.35-23,6.95-9.56,15.82-4.44,16.2,15.44,16.35,23M92.09,252.47c.15,7.58-7,9.57-15.82,4.45s-16.21-15.45-16.36-23,7-9.56,15.82-4.44,16.22,15.45,16.36,23m-53-113.41,2,100.48c.14,7.4,7.29,17.45,16,22.46L174.7,330c8.67,5,15.58,3.06,15.43-4.33l-1.95-100.48c-.14-7.4-7.29-17.45-16-22.46l-117.73-68c-8.67-5-15.58-3.06-15.44,4.33"/><path class="cls-6" d="M99.29,223.51c.14,7.21,7.12,17,15.56,21.9s15.19,3,15.05-4.23-7.12-17-15.56-21.89-15.19-3-15,4.22"/><path class="cls-7" d="M129.9,241.18c.14,7.21-6.61,9.1-15.05,4.23s-15.42-14.69-15.56-21.9,6.61-9.09,15-4.22,15.42,14.7,15.56,21.89M98.51,223.06c.14,7.57,7.48,17.9,16.35,23s16,3.13,15.82-4.44-7.48-17.89-16.35-23-16-3.13-15.82,4.44"/><path class="cls-6" d="M137.89,212.68c.14,7.21,7.11,17,15.55,21.89s15.19,3,15.05-4.21-7.12-17-15.56-21.91-15.18-3-15,4.23"/><path class="cls-7" d="M168.49,230.36c.14,7.2-6.61,9.09-15.05,4.21S138,219.89,137.89,212.68s6.6-9.1,15-4.23,15.42,14.7,15.56,21.91m-31.4-18.13c.15,7.57,7.49,17.9,16.36,23s16,3.13,15.83-4.44-7.49-17.9-16.36-23-16-3.13-15.83,4.45"/><path class="cls-6" d="M60.69,234.35c.14,7.2,7.12,17,15.56,21.9s15.2,3,15.06-4.23-7.12-17-15.56-21.9-15.2-3-15.06,4.23"/><path class="cls-7" d="M91.31,252c.14,7.21-6.61,9.1-15.06,4.23s-15.42-14.7-15.56-21.9,6.62-9.1,15.06-4.23,15.42,14.7,15.56,21.9m-31.4-18.13c.15,7.58,7.49,17.9,16.36,23s16,3.13,15.82-4.45-7.48-17.9-16.36-23-16-3.13-15.82,4.44"/></g></g><polygon class="cls-10" points="310.66 96.52 189.85 211.22 36.8 122.86 157.6 8.16 310.66 96.52"/><g class="cls-2"><g class="cls-11"><path class="cls-5" d="M90.81,128.5c-8.87-5.12-10.4-14.7-3.39-21.35s19.92-7.89,28.79-2.77,10.39,14.7,3.39,21.35-19.92,7.89-28.79,2.77m78.49,45.32c-8.88-5.13-10.4-14.7-3.39-21.35s19.92-7.89,28.79-2.77,10.39,14.7,3.39,21.35-19.92,7.89-28.79,2.77M161,121.75c-8.87-5.12-10.4-14.7-3.39-21.35s19.92-7.89,28.79-2.76,10.39,14.69,3.38,21.34-19.9,7.89-28.78,2.77m-8.27-52.07c-8.87-5.12-10.4-14.7-3.39-21.35s19.92-7.89,28.79-2.77,10.39,14.7,3.39,21.35-19.92,7.89-28.79,2.77M231.25,115c-8.88-5.13-10.4-14.7-3.4-21.35s19.93-7.89,28.8-2.77S267,105.58,260,112.23s-19.92,7.89-28.79,2.77m60.2-27.2-117.74-68c-8.66-5-21.24-3.79-28.08,2.7L52.7,110.76c-6.84,6.49-5.36,15.82,3.31,20.82l117.73,68c8.67,5,21.25,3.79,28.09-2.7l92.93-88.24c6.84-6.49,5.36-15.82-3.31-20.82"/><path class="cls-6" d="M185.81,98.22c-8.44-4.87-20.73-3.69-27.39,2.64s-5.21,15.43,3.23,20.3,20.72,3.69,27.38-2.63,5.22-15.44-3.22-20.31"/><path class="cls-7" d="M161.65,121.16c-8.44-4.87-9.89-14-3.23-20.3s19-7.51,27.39-2.64,9.88,14,3.22,20.31-18.94,7.5-27.38,2.63m24.78-23.52c-8.87-5.13-21.79-3.88-28.79,2.76s-5.48,16.23,3.39,21.35,21.78,3.88,28.78-2.77,5.49-16.22-3.38-21.34"/><path class="cls-6" d="M194.07,150.29c-8.44-4.87-20.71-3.69-27.37,2.63s-5.23,15.44,3.21,20.31,20.73,3.69,27.39-2.63,5.21-15.44-3.23-20.31"/><path class="cls-7" d="M169.91,173.23c-8.44-4.87-9.88-14-3.21-20.31s18.93-7.5,27.37-2.63,9.9,14,3.23,20.31-18.94,7.5-27.39,2.63M194.7,149.7c-8.87-5.12-21.79-3.88-28.79,2.77s-5.49,16.22,3.39,21.35,21.79,3.88,28.79-2.77,5.48-16.23-3.39-21.35"/><path class="cls-6" d="M177.54,46.15c-8.44-4.87-20.73-3.69-27.39,2.63s-5.22,15.44,3.23,20.31,20.72,3.7,27.39-2.63S186,51,177.54,46.15"/><path class="cls-7" d="M153.38,69.09c-8.45-4.87-9.89-14-3.23-20.31s18.95-7.5,27.39-2.63,9.89,14,3.23,20.31-19,7.51-27.39,2.63m24.78-23.53c-8.87-5.12-21.79-3.88-28.79,2.77s-5.48,16.23,3.39,21.35,21.79,3.88,28.79-2.77,5.48-16.22-3.39-21.35"/><path class="cls-6" d="M256,91.47c-8.44-4.88-20.72-3.69-27.38,2.63s-5.23,15.44,3.21,20.31,20.73,3.69,27.39-2.63,5.22-15.44-3.22-20.31"/><path class="cls-7" d="M231.86,114.41c-8.44-4.87-9.88-14-3.21-20.31s18.94-7.51,27.38-2.63,9.89,14,3.22,20.31-18.94,7.5-27.39,2.63m24.79-23.53c-8.87-5.12-21.79-3.88-28.8,2.77s-5.48,16.22,3.4,21.35S253,118.88,260,112.23s5.48-16.23-3.39-21.35"/><path class="cls-6" d="M115.59,105c-8.45-4.88-20.73-3.7-27.39,2.62S83,123,91.43,127.91s20.72,3.7,27.39-2.63,5.21-15.43-3.23-20.3"/><path class="cls-7" d="M91.43,127.91c-8.44-4.87-9.89-14-3.23-20.31s18.94-7.5,27.39-2.62,9.89,14,3.23,20.3-18.95,7.51-27.39,2.63m24.78-23.53c-8.87-5.12-21.79-3.88-28.79,2.77s-5.48,16.23,3.39,21.35,21.79,3.88,28.79-2.77,5.48-16.22-3.39-21.35"/></g></g></g></svg>