<svg id="Layer_1" data-name="Layer 1" xmlns="http://www.w3.org/2000/svg" xmlns:xlink="http://www.w3.org/1999/xlink" viewBox="0 0 350 350"><defs><style>.cls-1{fill:none;}.cls-2{isolation:isolate;}.cls-3{fill:#9f2020;}.cls-4{clip-path:url(#clip-path);}.cls-5{fill:#b82525;}.cls-6{fill:#fffdf2;}.cls-7{fill:#ffe467;}.cls-8{fill:#941e1e;}.cls-9{clip-path:url(#clip-path-2);}.cls-10{fill:#ab2222;}.cls-11{clip-path:url(#clip-path-3);}</style><clipPath id="clip-path"><polygon class="cls-1" points="310.66 96.52 313.2 227.14 192.39 341.84 189.85 211.22 310.66 96.52"/></clipPath><clipPath id="clip-path-2"><polygon class="cls-1" points="189.85 211.22 192.39 341.84 39.34 253.48 36.8 122.86 189.85 211.22"/></clipPath><clipPath id="clip-path-3"><polygon class="cls-1" points="310.66 96.52 189.85 211.22 36.8 122.86 157.61 8.16 310.66 96.52"/></clipPath></defs><title>dices</title><g class="cls-2"><polygon class="cls-3" points="310.66 96.52 313.2 227.14 192.39 341.84 189.85 211.22 310.66 96.52"/><g class="cls-2"><g class="cls-4"><path class="cls-5" d="M281.58,142.55c7-6.65,12.82-5.9,13,1.67s-5.43,19.14-12.43,25.79-12.82,5.9-13-1.67,5.43-19.14,12.43-25.79m-61.95,58.82c7-6.65,12.82-5.9,13,1.67s-5.43,19.14-12.43,25.79-12.82,5.9-13-1.67,5.43-19.14,12.43-25.79m63.25,8.16c7-6.65,12.83-5.9,13,1.67s-5.43,19.15-12.43,25.79-12.82,5.9-13-1.67,5.43-19.14,12.43-25.79m-61.95,58.82c7-6.65,12.83-5.9,13,1.67s-5.43,19.15-12.43,25.79-12.82,5.9-13-1.67,5.43-19.14,12.43-25.79M206.3,326.93l92.93-88.23c6.84-6.5,12.27-17.76,12.12-25.16l-2-100.48c-.14-7.39-5.81-8.12-12.65-1.63l-92.92,88.23c-6.85,6.5-12.28,17.76-12.13,25.16l2,100.48c.14,7.39,5.81,8.13,12.65,1.63"/><path class="cls-6" d="M220.15,228.16c6.67-6.33,12-17.32,11.83-24.53s-5.67-7.92-12.33-1.59-12,17.33-11.83,24.53,5.67,7.91,12.33,1.59"/><path class="cls-7" d="M219.65,202c6.66-6.33,12.19-5.61,12.33,1.59s-5.16,18.2-11.83,24.53-12.19,5.62-12.33-1.59S213,208.36,219.65,202m.52,26.79c7-6.65,12.58-18.22,12.43-25.79s-6-8.32-13-1.67-12.58,18.22-12.43,25.79,6,8.32,13,1.67"/><path class="cls-6" d="M283.41,236.33c6.66-6.33,12-17.34,11.82-24.54s-5.67-7.92-12.33-1.59-12,17.33-11.83,24.53,5.67,7.92,12.34,1.6"/><path class="cls-7" d="M282.9,210.2c6.66-6.33,12.19-5.61,12.33,1.59s-5.16,18.21-11.82,24.54-12.2,5.61-12.34-1.6,5.16-18.21,11.83-24.53m.52,26.79c7-6.64,12.58-18.22,12.43-25.79s-6-8.32-13-1.67-12.58,18.22-12.43,25.79,6,8.32,13,1.67"/><path class="cls-6" d="M221.46,295.15c6.66-6.33,12-17.33,11.82-24.53s-5.67-7.93-12.33-1.6-12,17.33-11.83,24.53,5.67,7.92,12.34,1.6"/><path class="cls-7" d="M221,269c6.66-6.33,12.19-5.61,12.33,1.6s-5.16,18.2-11.82,24.53-12.2,5.61-12.34-1.6S214.29,275.34,221,269m.52,26.79c7-6.64,12.58-18.22,12.43-25.79s-6-8.32-13-1.67-12.58,18.22-12.43,25.79,6,8.32,13,1.67"/><path class="cls-6" d="M282.1,169.34c6.67-6.33,12-17.33,11.83-24.53s-5.67-7.92-12.33-1.59-12,17.33-11.83,24.53,5.67,7.91,12.33,1.59"/><path class="cls-7" d="M281.6,143.22c6.66-6.33,12.19-5.62,12.33,1.59s-5.16,18.2-11.83,24.53-12.19,5.62-12.33-1.59,5.16-18.21,11.83-24.53m.52,26.79c7-6.65,12.58-18.22,12.43-25.79s-6-8.32-13-1.67S269,160.77,269.15,168.34s6,8.32,13,1.67"/></g></g><polygon class="cls-8" points="189.85 211.22 192.39 341.84 39.34 253.48 36.8 122.86 189.85 211.22"/><g class="cls-2"><g class="cls-9"><path class="cls-5" d="M152.93,207.79c8.87,5.12,16.21,15.45,16.35,23s-6.95,9.56-15.82,4.44-16.21-15.45-16.36-23,7-9.57,15.83-4.44M74.44,162.47c8.87,5.12,16.21,15.45,16.36,23s-7,9.57-15.83,4.45-16.21-15.46-16.36-23,7-9.56,15.83-4.44m39.89,56.15c8.87,5.12,16.21,15.45,16.36,23s-7,9.56-15.83,4.44-16.2-15.45-16.35-23,6.95-9.56,15.82-4.44m39.9,56.15c8.87,5.12,16.21,15.45,16.36,23s-7,9.57-15.83,4.44-16.21-15.45-16.36-23,6.95-9.57,15.83-4.44M75.74,229.45c8.87,5.12,16.21,15.45,16.36,23s-6.95,9.56-15.83,4.44-16.21-15.45-16.36-23,7-9.56,15.83-4.44M57,262,174.7,330c8.67,5,15.58,3.07,15.44-4.33l-1.95-100.48c-.15-7.39-7.29-17.45-16-22.45l-117.73-68c-8.67-5-15.58-3.06-15.44,4.33L41,239.54c.15,7.4,7.29,17.45,16,22.46"/><path class="cls-6" d="M114.85,245.41c8.44,4.87,15.19,3,15.05-4.23s-7.12-17-15.56-21.89-15.18-3-15,4.22,7.12,17,15.55,21.9"/><path class="cls-7" d="M114.34,219.29c8.44,4.87,15.42,14.7,15.56,21.89s-6.61,9.1-15.05,4.23-15.41-14.69-15.55-21.9,6.61-9.09,15-4.22m.52,26.79c8.88,5.12,16,3.13,15.83-4.44s-7.49-17.9-16.36-23-16-3.13-15.82,4.44,7.48,17.9,16.35,23"/><path class="cls-6" d="M75,189.26c8.44,4.87,15.18,3,15-4.22s-7.11-17-15.55-21.9-15.19-3-15.05,4.23,7.12,17,15.56,21.89"/><path class="cls-7" d="M74.45,163.14C82.89,168,89.86,177.83,90,185s-6.6,9.09-15,4.22S59.54,174.57,59.4,167.37s6.61-9.1,15.05-4.23m.52,26.8c8.87,5.12,16,3.13,15.83-4.45s-7.49-17.9-16.36-23-16-3.13-15.83,4.44,7.49,17.9,16.36,23"/><path class="cls-6" d="M154.75,301.56c8.44,4.88,15.19,3,15.05-4.22s-7.12-17-15.56-21.9-15.19-3-15.05,4.22,7.12,17,15.56,21.9"/><path class="cls-7" d="M154.24,275.44c8.44,4.87,15.42,14.69,15.56,21.9s-6.61,9.1-15.05,4.22-15.42-14.69-15.56-21.9,6.61-9.1,15.05-4.22m.52,26.79c8.87,5.13,16,3.13,15.83-4.44s-7.49-17.9-16.36-23-16-3.13-15.83,4.44,7.49,17.9,16.36,23"/><path class="cls-6" d="M76.26,256.25c8.44,4.87,15.19,3,15-4.23s-7.12-17-15.56-21.9-15.19-3-15,4.23,7.12,17,15.56,21.9"/><path class="cls-7" d="M75.75,230.12C84.19,235,91.17,244.81,91.31,252s-6.61,9.1-15,4.23-15.42-14.7-15.56-21.9,6.61-9.1,15-4.23m.52,26.8c8.88,5.12,16,3.13,15.83-4.44s-7.49-17.91-16.36-23-16-3.13-15.83,4.44,7.49,17.91,16.36,23"/><path class="cls-6" d="M153.45,234.58c8.44,4.87,15.19,3,15.05-4.22s-7.12-17-15.56-21.91-15.2-3-15.06,4.23,7.12,17,15.57,21.9"/><path class="cls-7" d="M152.94,208.45c8.44,4.88,15.42,14.7,15.56,21.91s-6.61,9.09-15.05,4.22-15.43-14.7-15.57-21.9,6.62-9.1,15.06-4.23m.52,26.8c8.87,5.12,16,3.13,15.82-4.44s-7.48-17.9-16.35-23-16-3.13-15.83,4.44,7.49,17.9,16.36,23"/></g></g><polygon class="cls-10" points="310.66 96.52 189.85 211.22 36.8 122.86 157.61 8.16 310.66 96.52"/><g class="cls-2"><g class="cls-11"><path class="cls-5" d="M90.81,128.5c-8.87-5.12-10.39-14.7-3.39-21.35s19.92-7.89,28.79-2.77,10.4,14.7,3.39,21.35-19.92,7.89-28.79,2.77m78.49,45.32c-8.87-5.13-10.39-14.7-3.39-21.35s19.92-7.89,28.79-2.77,10.39,14.7,3.39,21.35-19.92,7.89-28.79,2.77M121.79,99.09c-8.87-5.12-10.4-14.7-3.4-21.35s19.92-7.89,28.8-2.76,10.39,14.7,3.39,21.35-19.92,7.88-28.79,2.76m78.49,45.31c-8.88-5.12-10.4-14.69-3.4-21.34s19.92-7.89,28.79-2.77,10.4,14.7,3.39,21.35-19.91,7.89-28.78,2.76M152.76,69.68c-8.87-5.12-10.39-14.7-3.39-21.35s19.92-7.89,28.79-2.77,10.4,14.7,3.39,21.35-19.92,7.89-28.79,2.77M231.25,115c-8.87-5.13-10.39-14.7-3.39-21.35s19.92-7.89,28.79-2.77S267,105.58,260,112.23s-19.92,7.89-28.79,2.77m60.2-27.2-117.73-68c-8.67-5-21.25-3.79-28.09,2.7L52.7,110.76c-6.84,6.49-5.36,15.82,3.31,20.82l117.74,68c8.66,5,21.24,3.79,28.08-2.7l92.93-88.24c6.84-6.49,5.36-15.82-3.31-20.82"/><path class="cls-6" d="M194.08,150.29c-8.44-4.87-20.72-3.69-27.38,2.63s-5.22,15.44,3.22,20.31,20.73,3.69,27.39-2.63,5.21-15.44-3.23-20.31"/><path class="cls-7" d="M169.92,173.23c-8.44-4.87-9.88-14-3.22-20.31s18.94-7.5,27.38-2.63,9.89,14,3.23,20.31-18.95,7.5-27.39,2.63M194.7,149.7c-8.87-5.12-21.79-3.88-28.79,2.77s-5.48,16.22,3.39,21.35,21.79,3.88,28.79-2.77,5.48-16.23-3.39-21.35"/><path class="cls-6" d="M177.54,46.15c-8.44-4.87-20.72-3.69-27.39,2.63s-5.21,15.44,3.23,20.31,20.73,3.7,27.39-2.63S186,51,177.54,46.15"/><path class="cls-7" d="M153.38,69.09c-8.44-4.87-9.89-14-3.23-20.31s18.95-7.5,27.39-2.63,9.89,14,3.23,20.31-19,7.51-27.39,2.63m24.78-23.53c-8.87-5.12-21.79-3.88-28.79,2.77s-5.48,16.23,3.39,21.35,21.79,3.88,28.79-2.77,5.49-16.22-3.39-21.35"/><path class="cls-6" d="M256,91.47c-8.44-4.88-20.72-3.69-27.38,2.63s-5.22,15.44,3.22,20.31,20.72,3.69,27.39-2.63,5.21-15.44-3.23-20.31"/><path class="cls-7" d="M231.87,114.41c-8.44-4.87-9.88-14-3.22-20.31s18.94-7.51,27.38-2.63,9.89,14,3.23,20.31-18.95,7.5-27.39,2.63m24.78-23.53c-8.87-5.12-21.79-3.88-28.79,2.77s-5.48,16.22,3.39,21.35S253,118.88,260,112.23s5.48-16.23-3.39-21.35"/><path class="cls-6" d="M115.59,105c-8.44-4.88-20.72-3.7-27.39,2.62S83,123,91.43,127.91s20.73,3.7,27.39-2.63,5.21-15.43-3.23-20.3"/><path class="cls-7" d="M91.43,127.91c-8.44-4.87-9.89-14-3.23-20.31s19-7.5,27.39-2.62,9.89,14,3.23,20.3-18.95,7.51-27.39,2.63m24.78-23.53c-8.87-5.12-21.79-3.88-28.79,2.77s-5.48,16.23,3.39,21.35,21.79,3.88,28.79-2.77,5.49-16.22-3.39-21.35"/><path class="cls-6" d="M225.05,120.88c-8.44-4.88-20.72-3.69-27.38,2.64s-5.22,15.42,3.23,20.3,20.72,3.69,27.38-2.63,5.22-15.44-3.23-20.31"/><path class="cls-7" d="M200.9,143.82c-8.45-4.88-9.89-14-3.23-20.3s18.94-7.52,27.38-2.64,9.89,14,3.23,20.31-18.94,7.5-27.38,2.63m24.77-23.53c-8.87-5.12-21.79-3.88-28.79,2.77s-5.48,16.22,3.4,21.34,21.78,3.89,28.78-2.76,5.49-16.23-3.39-21.35"/><path class="cls-6" d="M146.57,75.56c-8.44-4.87-20.73-3.69-27.39,2.64S114,93.63,122.41,98.5s20.73,3.69,27.38-2.63,5.22-15.43-3.22-20.31"/><path class="cls-7" d="M122.41,98.5c-8.44-4.87-9.89-14-3.23-20.3s18.95-7.51,27.39-2.64,9.89,14,3.22,20.31-18.94,7.51-27.38,2.63M147.19,75c-8.88-5.13-21.79-3.88-28.8,2.76s-5.47,16.23,3.4,21.35,21.78,3.88,28.79-2.76S156.06,80.1,147.19,75"/></g></g></g></svg>