<svg id="Layer_1" data-name="Layer 1" xmlns="http://www.w3.org/2000/svg" xmlns:xlink="http://www.w3.org/1999/xlink" viewBox="0 0 350 350"><defs><style>.cls-1{fill:none;}.cls-2{isolation:isolate;}.cls-3{fill:#9f2020;}.cls-4{clip-path:url(#clip-path);}.cls-5{fill:#b82525;}.cls-6{fill:#fffdf2;}.cls-7{fill:#ffe467;}.cls-8{fill:#941e1e;}.cls-9{clip-path:url(#clip-path-2);}.cls-10{fill:#ab2222;}.cls-11{clip-path:url(#clip-path-3);}</style><clipPath id="clip-path"><polygon class="cls-1" points="310.66 96.52 313.2 227.14 192.39 341.84 189.85 211.22 310.66 96.52"/></clipPath><clipPath id="clip-path-2"><polygon class="cls-1" points="189.85 211.22 192.39 341.84 39.34 253.48 36.8 122.86 189.85 211.22"/></clipPath><clipPath id="clip-path-3"><polygon class="cls-1" points="310.66 96.52 189.85 211.22 36.8 122.86 157.61 8.16 310.66 96.52"/></clipPath></defs><title>dices</title><g class="cls-2"><polygon class="cls-3" points="310.66 96.52 313.2 227.14 192.39 341.84 189.85 211.22 310.66 96.52"/><g class="cls-2"><g class="cls-4"><path class="cls-5" d="M294.55,144.22c.15,7.58-5.43,19.15-12.44,25.8s-12.82,5.89-13-1.68,5.43-19.14,12.43-25.79,12.82-5.9,13,1.67M233.9,270c.15,7.57-5.43,19.14-12.43,25.79s-12.82,5.9-13-1.68,5.43-19.14,12.43-25.79,12.82-5.9,13,1.68m-42.21-45.2,2,100.47c.14,7.4,5.81,8.13,12.65,1.63l92.92-88.23c6.85-6.49,12.28-17.76,12.13-25.16l-2-100.47c-.14-7.4-5.81-8.13-12.65-1.63l-92.93,88.23c-6.84,6.49-12.27,17.76-12.13,25.16"/><path class="cls-6" d="M269.77,167.75c.14,7.2,5.67,7.92,12.33,1.59s12-17.32,11.83-24.53-5.67-7.92-12.34-1.59-12,17.33-11.82,24.53"/><path class="cls-7" d="M293.93,144.81c.14,7.21-5.17,18.2-11.83,24.53s-12.19,5.61-12.33-1.59,5.16-18.2,11.82-24.53,12.2-5.61,12.34,1.59m-24.78,23.53c.14,7.57,6,8.33,13,1.68s12.59-18.22,12.44-25.8-6-8.32-13-1.67S269,160.77,269.15,168.34"/><path class="cls-6" d="M209.12,293.56c.14,7.2,5.67,7.92,12.33,1.59s12-17.33,11.83-24.54S227.61,262.7,221,269s-12,17.33-11.83,24.54"/><path class="cls-7" d="M233.28,270.61c.14,7.21-5.16,18.21-11.83,24.54s-12.19,5.61-12.33-1.59S214.28,275.35,221,269s12.19-5.61,12.33,1.59M208.5,294.14c.15,7.58,6,8.33,13,1.68S234.05,277.6,233.9,270s-6-8.33-13-1.68-12.58,18.22-12.43,25.79"/></g></g><polygon class="cls-8" points="189.85 211.22 192.39 341.84 39.34 253.48 36.8 122.86 189.85 211.22"/><g class="cls-2"><g class="cls-9"><path class="cls-5" d="M170.58,297.79c.15,7.57-7,9.57-15.82,4.44s-16.21-15.45-16.36-23,6.95-9.56,15.83-4.44,16.21,15.45,16.35,23m-1.3-67c.15,7.57-6.95,9.56-15.82,4.44s-16.21-15.45-16.36-23,7-9.57,15.82-4.44,16.21,15.45,16.36,23m-37.94,44.32c.14,7.57-7,9.57-15.82,4.45s-16.21-15.45-16.36-23,7-9.57,15.83-4.45,16.2,15.45,16.35,23m-1.31-67c.15,7.57-6.94,9.57-15.81,4.45s-16.21-15.46-16.36-23,7-9.56,15.82-4.44,16.21,15.45,16.35,23M92.1,252.48c.14,7.57-7,9.56-15.83,4.44s-16.21-15.45-16.36-23,7-9.57,15.83-4.45,16.21,15.46,16.36,23m-1.31-67c.15,7.58-7,9.57-15.82,4.45s-16.21-15.45-16.36-23,7-9.56,15.83-4.44,16.21,15.45,16.35,23M39.06,139.07,41,239.54c.14,7.4,7.29,17.45,16,22.46L174.7,330c8.67,5,15.58,3.07,15.44-4.33l-2-100.48c-.14-7.39-7.28-17.45-16-22.45l-117.74-68c-8.66-5-15.58-3.06-15.43,4.34"/><path class="cls-6" d="M137.89,212.69c.14,7.2,7.11,17,15.55,21.89s15.2,3,15.06-4.22-7.12-17-15.56-21.9-15.19-3-15.05,4.23"/><path class="cls-7" d="M168.5,230.36c.14,7.2-6.61,9.09-15.06,4.22S138,219.89,137.89,212.69s6.6-9.11,15.05-4.23,15.42,14.69,15.56,21.9m-31.4-18.13c.15,7.57,7.48,17.9,16.36,23s16,3.13,15.82-4.44-7.48-17.9-16.36-23-16-3.13-15.82,4.44"/><path class="cls-6" d="M60.7,234.35c.14,7.2,7.12,17,15.56,21.9s15.19,3,15-4.23-7.12-17-15.56-21.9-15.19-3-15,4.23"/><path class="cls-7" d="M91.31,252c.14,7.21-6.61,9.1-15,4.23s-15.42-14.7-15.56-21.9,6.61-9.1,15-4.23,15.42,14.7,15.56,21.9M59.91,233.9c.15,7.57,7.49,17.9,16.36,23s16,3.13,15.83-4.44-7.49-17.9-16.36-23-16-3.13-15.83,4.45"/><path class="cls-6" d="M59.39,167.37c.14,7.2,7.12,17,15.57,21.89s15.19,3,15.05-4.22-7.12-17-15.56-21.9-15.2-3-15.06,4.23"/><path class="cls-7" d="M90,185c.14,7.21-6.61,9.1-15.05,4.22s-15.43-14.69-15.57-21.89,6.62-9.1,15.06-4.23S89.87,177.84,90,185m-31.4-18.13c.15,7.58,7.49,17.9,16.36,23s16,3.13,15.82-4.45-7.48-17.9-16.35-23-16-3.13-15.83,4.44"/><path class="cls-6" d="M139.19,279.67c.14,7.2,7.11,17,15.56,21.89s15.19,3,15.05-4.22-7.12-17-15.56-21.9-15.19-3-15.05,4.23"/><path class="cls-7" d="M169.8,297.34c.14,7.2-6.61,9.1-15.05,4.22s-15.42-14.69-15.56-21.89,6.61-9.11,15.05-4.23,15.42,14.69,15.56,21.9m-31.4-18.13c.15,7.57,7.49,17.9,16.36,23s16,3.13,15.82-4.44-7.48-17.9-16.35-23-16-3.13-15.83,4.44"/><path class="cls-6" d="M98.64,190c.14,7.2,7.12,17,15.56,21.89s15.19,3,15-4.22-7.12-17-15.55-21.9-15.2-3-15.06,4.23"/><path class="cls-7" d="M129.25,207.7c.14,7.2-6.61,9.09-15,4.22S98.78,197.23,98.64,190s6.61-9.1,15.06-4.23,15.41,14.69,15.55,21.9M97.86,189.57c.15,7.57,7.48,17.9,16.36,23s16,3.12,15.81-4.45-7.47-17.9-16.35-23-16-3.13-15.82,4.44"/><path class="cls-6" d="M99.94,257c.14,7.2,7.12,17,15.57,21.9s15.18,3,15-4.23-7.12-17-15.55-21.9-15.2-3-15.06,4.23"/><path class="cls-7" d="M130.55,274.68c.14,7.2-6.61,9.1-15,4.23s-15.43-14.7-15.57-21.9,6.62-9.1,15.06-4.23,15.41,14.7,15.55,21.9M99.16,256.56c.15,7.57,7.49,17.9,16.36,23s16,3.12,15.82-4.45-7.48-17.89-16.35-23S99,249,99.16,256.56"/></g></g><polygon class="cls-10" points="310.66 96.52 189.85 211.22 36.8 122.86 157.61 8.16 310.66 96.52"/><g class="cls-2"><g class="cls-11"><path class="cls-5" d="M169.3,173.82c-8.87-5.12-10.39-14.7-3.39-21.35s19.92-7.89,28.79-2.77,10.39,14.7,3.39,21.35-19.92,7.89-28.79,2.77M161,121.75c-8.88-5.12-10.4-14.69-3.4-21.34s19.92-7.89,28.79-2.77,10.39,14.69,3.39,21.34-19.91,7.89-28.78,2.77m-8.28-52.07c-8.87-5.12-10.39-14.7-3.39-21.35s19.92-7.89,28.79-2.76,10.4,14.7,3.39,21.35-19.92,7.89-28.79,2.76M291.45,87.8l-117.73-68c-8.67-5-21.25-3.8-28.09,2.7L52.7,110.76c-6.84,6.49-5.36,15.82,3.31,20.82l117.74,68c8.66,5,21.24,3.79,28.08-2.7l92.93-88.23c6.84-6.5,5.36-15.83-3.31-20.83"/><path class="cls-6" d="M185.81,98.23c-8.44-4.88-20.72-3.7-27.39,2.63s-5.21,15.43,3.24,20.3,20.72,3.69,27.37-2.63,5.22-15.44-3.22-20.3"/><path class="cls-7" d="M161.66,121.16c-8.45-4.87-9.89-14-3.24-20.3s19-7.51,27.39-2.63,9.89,14,3.22,20.3-18.94,7.5-27.37,2.63m24.77-23.52c-8.87-5.12-21.79-3.88-28.79,2.77s-5.48,16.22,3.4,21.34,21.77,3.88,28.78-2.77,5.49-16.22-3.39-21.34"/><path class="cls-6" d="M194.08,150.29c-8.44-4.87-20.72-3.69-27.38,2.64s-5.22,15.43,3.22,20.3,20.73,3.69,27.39-2.63,5.21-15.43-3.23-20.31"/><path class="cls-7" d="M169.92,173.23c-8.44-4.87-9.88-14-3.22-20.3s18.94-7.51,27.38-2.64,9.89,14,3.23,20.31-18.95,7.51-27.39,2.63M194.7,149.7c-8.87-5.12-21.79-3.88-28.79,2.77s-5.48,16.23,3.39,21.35,21.79,3.88,28.79-2.77,5.48-16.23-3.39-21.35"/><path class="cls-6" d="M177.54,46.15c-8.44-4.87-20.72-3.69-27.39,2.64s-5.21,15.43,3.23,20.31,20.73,3.69,27.39-2.64S186,51,177.54,46.15"/><path class="cls-7" d="M153.38,69.1c-8.44-4.88-9.89-14-3.23-20.31s18.95-7.51,27.39-2.64,9.89,14,3.23,20.31-19,7.51-27.39,2.64m24.78-23.53c-8.87-5.13-21.79-3.88-28.79,2.76s-5.48,16.23,3.39,21.35,21.79,3.88,28.79-2.76,5.49-16.23-3.39-21.35"/></g></g></g></svg>