<svg id="Layer_1" data-name="Layer 1" xmlns="http://www.w3.org/2000/svg" xmlns:xlink="http://www.w3.org/1999/xlink" viewBox="0 0 350 350"><defs><style>.cls-1{fill:none;}.cls-2{isolation:isolate;}.cls-3{fill:#9f2020;}.cls-4{clip-path:url(#clip-path);}.cls-5{fill:#b82525;}.cls-6{fill:#fffdf2;}.cls-7{fill:#ffe467;}.cls-8{fill:#941e1e;}.cls-9{clip-path:url(#clip-path-2);}.cls-10{fill:#ab2222;}.cls-11{clip-path:url(#clip-path-3);}</style><clipPath id="clip-path"><polygon class="cls-1" points="310.66 96.53 313.2 227.14 192.39 341.84 189.85 211.23 310.66 96.53"/></clipPath><clipPath id="clip-path-2"><polygon class="cls-1" points="189.85 211.23 192.39 341.84 39.34 253.48 36.8 122.86 189.85 211.23"/></clipPath><clipPath id="clip-path-3"><polygon class="cls-1" points="310.66 96.53 189.85 211.23 36.8 122.86 157.6 8.16 310.66 96.53"/></clipPath></defs><title>dices</title><g class="cls-2"><polygon class="cls-3" points="310.66 96.53 313.2 227.14 192.39 341.84 189.85 211.23 310.66 96.53"/><g class="cls-2"><g class="cls-4"><path class="cls-5" d="M281.58,142.55c7-6.65,12.82-5.9,13,1.67s-5.43,19.15-12.43,25.8-12.82,5.9-13-1.68,5.43-19.14,12.43-25.79m-61.95,58.82c7-6.65,12.82-5.9,13,1.67s-5.43,19.15-12.43,25.8-12.82,5.89-13-1.68,5.43-19.14,12.43-25.79m63.25,8.16c7-6.65,12.83-5.9,13,1.68s-5.43,19.14-12.43,25.79-12.82,5.9-13-1.67,5.43-19.15,12.43-25.8m-61.94,58.82c7-6.65,12.82-5.9,13,1.68s-5.43,19.14-12.43,25.79-12.82,5.9-13-1.67,5.43-19.15,12.44-25.8M206.3,326.93l92.93-88.23c6.84-6.49,12.27-17.76,12.12-25.16l-2-100.47c-.14-7.4-5.81-8.13-12.65-1.63l-92.92,88.23c-6.85,6.49-12.28,17.76-12.13,25.16l2,100.47c.14,7.4,5.81,8.13,12.65,1.63"/><path class="cls-6" d="M220.15,228.16c6.67-6.32,12-17.32,11.83-24.52s-5.67-7.93-12.33-1.6-12,17.33-11.83,24.54,5.67,7.91,12.33,1.58"/><path class="cls-7" d="M219.65,202c6.66-6.33,12.19-5.61,12.33,1.6s-5.16,18.2-11.83,24.52-12.19,5.62-12.33-1.58S213,208.37,219.65,202m.52,26.8c7-6.65,12.58-18.22,12.43-25.8s-6-8.32-13-1.67-12.58,18.22-12.43,25.79,6,8.33,13,1.68"/><path class="cls-6" d="M283.41,236.33c6.66-6.33,12-17.33,11.82-24.54s-5.67-7.91-12.33-1.59-12,17.33-11.83,24.54,5.67,7.92,12.34,1.59"/><path class="cls-7" d="M282.9,210.2c6.66-6.32,12.19-5.61,12.33,1.59s-5.16,18.21-11.82,24.54-12.2,5.61-12.34-1.59,5.16-18.21,11.83-24.54m.52,26.8c7-6.65,12.58-18.22,12.43-25.79s-6-8.33-13-1.68-12.58,18.22-12.43,25.8,6,8.32,13,1.67"/><path class="cls-6" d="M221.46,295.15c6.66-6.33,12-17.33,11.82-24.53S227.61,262.7,221,269s-12,17.33-11.83,24.54,5.67,7.92,12.34,1.59"/><path class="cls-7" d="M221,269c6.66-6.32,12.19-5.6,12.33,1.6s-5.16,18.2-11.82,24.53-12.2,5.61-12.34-1.59S214.29,275.35,221,269m.52,26.8c7-6.65,12.58-18.22,12.43-25.79s-6-8.33-13-1.68-12.59,18.22-12.44,25.8,6,8.32,13,1.67"/><path class="cls-6" d="M282.1,169.34c6.67-6.32,12-17.32,11.83-24.53s-5.67-7.92-12.33-1.59-12,17.33-11.83,24.54,5.67,7.91,12.33,1.58"/><path class="cls-7" d="M281.6,143.22c6.66-6.33,12.19-5.61,12.33,1.59S288.77,163,282.1,169.34s-12.19,5.62-12.33-1.58,5.16-18.21,11.83-24.54m.52,26.8c7-6.65,12.58-18.22,12.43-25.8s-6-8.32-13-1.67S269,160.77,269.15,168.34s6,8.33,13,1.68"/></g></g><polygon class="cls-8" points="189.85 211.23 192.39 341.84 39.34 253.48 36.8 122.86 189.85 211.23"/><g class="cls-2"><g class="cls-9"><path class="cls-5" d="M152.92,207.79c8.87,5.12,16.21,15.45,16.36,23s-6.95,9.57-15.82,4.44-16.22-15.45-16.36-23,7-9.56,15.82-4.44M74.43,162.47c8.88,5.13,16.22,15.45,16.36,23s-7,9.56-15.82,4.44-16.21-15.45-16.36-23,7-9.56,15.82-4.44m79.14,78.81c8.88,5.12,16.21,15.45,16.36,23s-7,9.56-15.82,4.44-16.22-15.45-16.36-23,6.95-9.56,15.82-4.44M75.09,196c8.87,5.12,16.21,15.44,16.35,23s-7,9.57-15.82,4.45S59.41,208,59.26,200.4s6.95-9.56,15.83-4.43m79.13,78.8c8.88,5.12,16.22,15.45,16.36,23s-7,9.57-15.82,4.45-16.21-15.46-16.36-23,6.95-9.56,15.82-4.44M75.74,229.45c8.87,5.13,16.21,15.46,16.35,23s-7,9.56-15.82,4.44-16.21-15.45-16.36-23,7-9.57,15.83-4.45M57,262,174.7,330c8.67,5,15.58,3.07,15.44-4.33l-2-100.47c-.14-7.4-7.29-17.46-16-22.46l-117.74-68c-8.67-5-15.58-3.06-15.43,4.34L41,239.54c.14,7.4,7.29,17.46,16,22.46"/><path class="cls-6" d="M75,189.26c8.45,4.88,15.19,3,15-4.22s-7.11-17-15.55-21.9-15.2-3-15.06,4.23,7.12,17,15.56,21.89"/><path class="cls-7" d="M74.45,163.14C82.89,168,89.86,177.83,90,185s-6.6,9.1-15,4.22-15.42-14.69-15.56-21.89,6.62-9.1,15.06-4.23m.52,26.8c8.87,5.12,16,3.13,15.82-4.44s-7.48-17.9-16.36-23-16-3.13-15.82,4.44,7.49,17.91,16.36,23"/><path class="cls-6" d="M154.74,301.57c8.45,4.87,15.2,3,15.06-4.23s-7.12-17-15.56-21.9-15.2-3-15.06,4.22,7.12,17,15.56,21.91"/><path class="cls-7" d="M154.24,275.44c8.44,4.87,15.42,14.7,15.56,21.9s-6.61,9.1-15.06,4.23-15.42-14.7-15.56-21.91,6.62-9.1,15.06-4.22m.52,26.8c8.87,5.12,16,3.12,15.82-4.45s-7.48-17.9-16.36-23-16-3.13-15.82,4.44,7.49,17.9,16.36,23"/><path class="cls-6" d="M76.26,256.25c8.44,4.87,15.18,3,15-4.23s-7.11-17-15.55-21.9-15.19-3-15,4.23,7.12,17,15.56,21.9"/><path class="cls-7" d="M75.75,230.12C84.19,235,91.16,244.82,91.3,252s-6.6,9.1-15,4.23-15.42-14.7-15.56-21.9,6.61-9.1,15-4.23m.52,26.8c8.87,5.12,16,3.13,15.82-4.44s-7.48-17.9-16.35-23-16-3.12-15.83,4.45,7.49,17.9,16.36,23"/><path class="cls-6" d="M153.44,234.58c8.44,4.87,15.2,3,15.06-4.22s-7.12-17-15.56-21.9-15.2-3-15.06,4.22,7.12,17,15.56,21.9"/><path class="cls-7" d="M152.94,208.46c8.44,4.87,15.42,14.69,15.56,21.9s-6.62,9.09-15.06,4.22-15.42-14.69-15.56-21.9,6.61-9.1,15.06-4.22m.52,26.79c8.87,5.13,16,3.13,15.82-4.44s-7.49-17.9-16.36-23-16-3.13-15.82,4.44,7.48,17.9,16.36,23"/><path class="cls-6" d="M75.61,222.76c8.44,4.87,15.18,3,15-4.23s-7.11-17-15.55-21.89-15.2-3-15.06,4.22,7.12,17,15.57,21.9"/><path class="cls-7" d="M75.1,196.64c8.44,4.87,15.41,14.69,15.55,21.89s-6.6,9.1-15,4.23S60.18,208.06,60,200.86s6.62-9.1,15.06-4.22m.52,26.79c8.87,5.12,16,3.13,15.82-4.45S84,201.09,75.09,196s-16-3.14-15.83,4.43,7.49,17.9,16.36,23"/><path class="cls-6" d="M154.09,268.07c8.45,4.88,15.2,3,15.06-4.22s-7.12-17-15.56-21.9-15.2-3-15.06,4.22,7.12,17,15.56,21.9"/><path class="cls-7" d="M153.59,242c8.44,4.87,15.42,14.7,15.56,21.9s-6.61,9.1-15.06,4.22-15.42-14.7-15.56-21.9,6.61-9.09,15.06-4.22m.52,26.79c8.87,5.12,16,3.13,15.82-4.44s-7.48-17.9-16.36-23-16-3.13-15.82,4.44,7.48,17.9,16.36,23"/></g></g><polygon class="cls-10" points="310.66 96.53 189.85 211.23 36.8 122.86 157.6 8.16 310.66 96.53"/><g class="cls-2"><g class="cls-11"><path class="cls-5" d="M169.3,173.82c-8.88-5.12-10.4-14.7-3.39-21.35s19.92-7.89,28.79-2.77,10.39,14.7,3.39,21.35-19.92,7.89-28.79,2.77M152.76,69.68c-8.87-5.12-10.4-14.7-3.39-21.35s19.92-7.89,28.79-2.76,10.39,14.7,3.39,21.35-19.92,7.89-28.79,2.76M291.45,87.8l-117.74-68c-8.66-5-21.24-3.8-28.08,2.7L52.7,110.76c-6.84,6.49-5.36,15.82,3.31,20.82l117.73,68c8.67,5,21.25,3.79,28.09-2.7l92.93-88.23c6.84-6.5,5.36-15.83-3.31-20.83"/><path class="cls-6" d="M194.07,150.29c-8.44-4.87-20.71-3.69-27.37,2.64s-5.23,15.43,3.21,20.3,20.73,3.69,27.39-2.63,5.21-15.43-3.23-20.31"/><path class="cls-7" d="M169.91,173.23c-8.44-4.87-9.88-14-3.21-20.3s18.93-7.51,27.37-2.64,9.9,14,3.23,20.31-18.94,7.51-27.39,2.63M194.7,149.7c-8.87-5.12-21.79-3.88-28.79,2.77s-5.49,16.23,3.39,21.35,21.79,3.88,28.79-2.77,5.48-16.23-3.39-21.35"/><path class="cls-6" d="M177.54,46.15c-8.44-4.87-20.73-3.69-27.39,2.64s-5.22,15.43,3.23,20.31,20.72,3.69,27.39-2.64S186,51,177.54,46.15"/><path class="cls-7" d="M153.38,69.1c-8.45-4.88-9.89-14-3.23-20.31s18.95-7.51,27.39-2.64,9.89,14,3.23,20.31-19,7.51-27.39,2.64m24.78-23.53c-8.87-5.13-21.79-3.88-28.79,2.76s-5.48,16.23,3.39,21.35,21.79,3.88,28.79-2.76,5.48-16.23-3.39-21.35"/></g></g></g></svg>