<svg id="Layer_1" data-name="Layer 1" xmlns="http://www.w3.org/2000/svg" viewBox="0 0 500 500"><defs><style>.cls-1,.cls-3{fill:#2b2827;}.cls-1,.cls-4{stroke:#ffe467;stroke-width:8px;}.cls-1,.cls-2,.cls-3,.cls-4{stroke-miterlimit:10;}.cls-2,.cls-4{fill:none;}.cls-2,.cls-3{stroke:#c26b38;stroke-width:5px;}</style></defs><title>safeTile</title><circle class="cls-1" cx="250" cy="250" r="149.5"/><circle class="cls-2" cx="250" cy="250" r="149.5"/><path class="cls-3" d="M127,250.63c.06-.21.13-.42.2-.63-18-57.85-24.52-115.74-27.2-148.15,34,29.66,73.89,35.77,98.78,16.47,5.37-4.17,13.93-12.53,20.12-28.82h62.2c6.19,16.29,14.75,24.65,20.12,28.82,24.89,19.3,64.77,13.19,98.78-16.47-2.68,32.41-9.18,90.3-27.19,148.15,18,57.85,24.51,115.74,27.19,148.15-34-29.66-73.89-35.77-98.78-16.47-5.37,4.17-13.93,12.53-20.12,28.82H218.9c-6.19-16.29-14.75-24.65-20.12-28.82C173.89,362.38,134,368.49,100,398.15,102.67,365.85,109.13,308.27,127,250.63Z"/><path class="cls-4" d="M127.3,250.15l0-.15C109.21,192,102.68,133.86,100,101.35c34,29.66,73.89,35.77,98.78,16.47,5.37-4.17,13.93-12.53,20.12-28.82h62.2c6.19,16.29,14.75,24.65,20.12,28.82C326.11,137.12,366,131,400,101.35,397.32,133.86,390.79,192,372.65,250c18.14,58,24.67,116.14,27.35,148.65-34-29.66-73.89-35.77-98.78-16.47-5.37,4.17-13.93,12.53-20.12,28.82H218.9c-6.19-16.29-14.75-24.65-20.12-28.82C173.89,362.88,134,369,100,398.65,102.68,366.17,109.2,308.11,127.3,250.15Z"/><path class="cls-2" d="M127.35,249.48c-18.14-58-24.67-116.13-27.35-148.63,34,29.66,73.89,35.77,98.78,16.47,5.37-4.17,13.93-12.53,20.12-28.82h62.2c6.19,16.29,14.75,24.65,20.12,28.82,24.89,19.3,64.77,13.19,98.78-16.47-2.68,32.52-9.22,90.68-27.37,148.71,18.15,58,24.69,116.2,27.37,148.72-34-29.66-73.89-35.77-98.78-16.47-5.37,4.16-13.93,12.53-20.12,28.82H218.9c-6.19-16.29-14.75-24.66-20.12-28.82C173.89,362.51,134,368.62,100,398.28c2.68-32.52,9.22-90.68,27.37-148.72Z"/></svg>